<svg version="1.2" xmlns="http://www.w3.org/2000/svg" width="682.667" height="682.667"
     viewBox="0 0 512.000000 512.000000">
    <path d="M241.1 3c-16.2 3.6-34.9 11.7-53.1 23-11 6.7-15.9 10.7-26.1 21.1-17.5 17.7-28.9 39.6-33.4 64.4-3.8 20.4-1.8 37 9 72.5 1.4 4.7 2.8 9.2 3 10 .9 3 5.6 15.3 6.7 17.3 1.4 2.7-2 9.2-6.8 12.7-6.7 5-6.6 10.1.3 20.5 1.8 2.7 3.3 5.3 3.3 5.7 0 .3-2.5 1.4-5.5 2.2-5.4 1.6-6.3 1.6-17.3-.9l-2.3-.6.3-24.2c.2-25.5 1.5-36.4 5.9-49.4 2-6.2 1.9-9.4-.6-11.9-1.1-1.2-11-6.4-12-6.4-.3 0-.6 0-.7-.1-.2 0-1.2-.2-2.3-.4-1.1-.2-2.9-.6-4-.9-1.1-.2-2.2-.5-2.5-.5-.3-.1.6-1.1 2-2.2s1.8-1.8 1-1.4c-1.3.6-1.3.5 0-.7 2.7-2.4 4.1-5.6 2.8-6.4-.7-.5-.8-.3-.3.6.5.9.4 1.1-.4.6-.9-.6-.9-1.2.1-2.4 2-2.7 2.2-2.8 1.4-.7-.6 1.6-.5 1.7.5.8 1-1 .9-1.6-.2-2.9-.8-1-.9-1.5-.3-1.1.7.4 1.5 0 1.8-.9.3-.8.2-1.2-.4-.9-1.7 1.1-1.1-.7.8-2.1 1.3-1.1 1.4-1.3.1-.9-.9.4-1.6 0-1.6-.9s.6-1.2 1.6-.8c1.4.5 1.4.4.1-1.3-.9-1.1-1-1.6-.2-1.1.6.4 1.2.2 1.2-.3 0-.6-.6-1.1-1.2-1.1-.9 0-.8-.4.2-1 .8-.5 1-1 .4-1s-1.1-.7-1.1-1.5c0-1.1.4-1.2 1.4-.4 2.1 1.8 1.5.2-.8-2-1.4-1.3-1.7-2.1-.9-2.6.8-.5.8-1.1-.1-2.1-.7-.9-.8-1.4-.3-1.3 1.9.3 3.4-.1 3.4-1 0-.6-1-.8-2.3-.6-2.2.5-2.2.4.3-1.8 1.4-1.2 2.1-1.9 1.6-1.5-1.6 1.3-2.2.9-2.3-1.2-.1-1.1.3-2 .8-2 .6 0 .7.5.3 1.2-.4.7-.3.8.4.4.6-.4.9-1.3.6-2.1-.4-.8-1-1.2-1.5-.9-.5.3-.9 0-.9-.5 0-.6.5-1.1 1-1.1.6 0 1-.5 1-1.1 0-.5-.4-.7-1-.4-1 .6-1.4-.7-1.1-3.4.2-.8-.3-1-1.1-.6-1 .6-1.1.5 0-.6 1.5-1.6 1.6-3.3 0-2.3-.7.4-.8.3-.4-.5.4-.6 1.2-.8 1.8-.5.6.4.8.2.4-.4-.3-.6-.2-1.3.4-1.7 1.6-1 .1-2.5-1.8-1.8-1.4.5-1.5.4-.6-.8 1.2-1.5 1.5-4.9.4-4.9-.3 0-1.1.5-1.8 1.2-.9.9-1.2.9-1.2 0 0-.7.5-1.2 1-1.2.6 0 1-1.1 1-2.4 0-1.4.4-2.8 1-3.1 1.1-.7-.9-4.5-2.3-4.5-.4 0-.5.6 0 1.2 1.1 1.8 1.2 3.7.3 4.3-.4.2-.7-.5-.6-1.8.1-1.3-.4-2.1-1.1-2-.7.2-1.2-.3-1-1 .1-.6-.3-1.1-1-1-.7.2-1-.3-.7-1 .3-.8-.2-1.4-1-1.4s-1.2.6-.8 1.5c.3.9.1 1.3-.4.9-.5-.3-1 .3-1 1.3s.4 1.6.8 1.4c.4-.3.5.2.2 1-.3.9-1 1.3-1.5 1-.5-.3-.9 0-.9.5 0 .6.4 1.1.8 1.1.5 0 .9.7.9 1.5 0 1.2-.3 1.2-1.6.2-1.2-.9-1.3-.9-.7 0 .4.8.2 1.3-.6 1.3-.7.1-.2.7 1.2 1.6 1.9 1.1 2.1 1.4.6 1.2-1-.2-2.1.3-2.4 1.1-.3 1 0 1.1.9.5 1.1-.6 1.1-.4 0 1-1.3 1.5-1.3 1.9 0 2.8 1.1.8 1.1.9-.3.4-1-.3-2-.1-2.3.4-.4.6-.1 1 .6 1s.5.6-.6 1.4c-1.8 1.3-1.8 1.3.1 2.4 1.8 1.1 1.8 1.1 0 1.2-1.5 0-1.6.3-.6 1.5 1.1 1.3 1 1.4-.2 1-1.1-.5-1.5 0-1.4 1.7.1 1.3-.2 2.6-.7 2.9-.4.3-.9 1.7-1.1 3-.1 1.4-.6 3.1-1.1 3.8-.5.9-.4 1.2.3.7.6-.3 1.4-.1 1.8.5.4.7.3.9-.2.6-.6-.3-1.6-.2-2.4.4-1.2.7-1.2.9-.1.9 1.1 0 1.1.3 0 1.7-1.2 1.4-1.2 1.5-.1.9 1.1-.7 1.2-.4.3 1.1-.7 1.4-.7 2.3 0 3 .8.8.7 1.3 0 1.7-.6.4-1.1 1.2-1.1 1.7 0 .6.5.7 1.2.3.7-.5.8-.3.2.7-1 1.6-1.4 5.9-.5 5.9.3 0 .7 1.7.7 3.8.2 5 .9 9.1 1.7 9.9.4.3.7 1.6.7 2.9 0 1.9-.4 2.1-4.3 1.9-14.7-1-17.2-.9-19.3 1.2-1.5 1.6-1.5 1.8 1.1 4.1 2.4 2.1 2.8 3.2 3.1 9 .1 3.7.6 12.5 1 19.7.4 7.1.7 16.6.7 21-.4 27.4-.3 32.3.5 35.1 1.3 4.2.5 5.1-5 5.8-2.6.4-8.6 1.8-13.4 3.2-15.5 4.4-25.2 10.1-30.1 17.6-2.3 3.5-2.8 5.3-2.9 11.2-.2 8.1 1.1 11.3 6.4 16.5 3.2 3.2 3.5 4 3.8 10.1.4 10 5.7 28 8.1 27.2.4-.1.8.2.8.7 0 .5.4 1.3.9 1.8s.6.2.1-.6c-.5-.9-.3-1.2.6-.9.8.3 1.4 1.3 1.4 2.4 0 1.1.8 2 2 2.1 2 .3 2 .3 0-.6-1.8-.8-1.8-1-.2-1 1-.1 2.2.9 2.7 2.2.5 1.2.9 1.9.9 1.4.1-1.1 5.1 2.3 5.1 3.5 0 .6-.6.5-1.5-.2-1-.9-1.5-.9-1.5-.1 0 1.1 1.2 1.5 4.2 1.2 1.2-.2 1.5.4 1.1 1.9-.3 1.1-1 2-1.5 2s-.7-.4-.4-.8c.2-.4-.3-.8-1.3-.9-1.4-.1-1.2.5 1.1 2.8 1.6 1.6 2.6 3.4 2.3 3.9-.4.6-.1 1.8.6 2.6 1 1.3 1 1.7-.2 2.5-.8.5-.9.9-.4.9.6 0 2.2-1.1 3.6-2.4 2.5-2.4 2.6-2.4 3.8-.3 1.1 1.7 1.1 1.9-.1 1.4-.8-.3-2.1-.1-2.9.4-1.1.6-1.1 1.1-.1 2.1.6.6 1.2 1.8 1.2 2.6 0 .9-.7.6-2-.9-1-1.3-1.9-2-2-1.6 0 .5.7 1.5 1.5 2.4.8.8 1.3 1.9 1 2.4-.4.5-.2.9.3.9s1.4-1.1 2-2.5c.6-1.4 1.6-2.5 2.2-2.5.8 0 .7.6 0 2s-.7 2 0 2c.5 0 1-.7 1-1.5s.5-1.5 1-1.5c1.3 0 1.3.6 0 3-.7 1.3-1.6 1.7-2.8 1.3-.9-.4-.4.5 1.2 2 3.3 3.1 4.7 3.6 2.3.9-1-1-1.4-2.2-1-2.5 1.1-1.1 2.3-.8 2 .5-.1.7.4 1.3 1.1 1.4 2.6.3 2.7.5 1.2 1.4-.8.5-1.1 1.2-.7 1.7.5.4 1.2.1 1.7-.7.5-.8 1.2-1.1 1.6-.7 1 1-1.7 3.9-3.2 3.3-.7-.3-1.6-.2-1.8.3-.3.4 0 .8.7.9 7.1.8 9.2 1.9 9.2 5 0 1 .6 1.5 1.5 1.3 2.2-.6 8.4-.8 9.3-.3.4.2-.1 1.2-1.3 2.2-1.7 1.5-1.8 1.9-.6 2.9 1.1.9 1.7.9 2.8-.2 1-1.1 1.8-1.2 3.5-.4 1.3.6 2.3 1.4 2.3 1.9s-.9.4-2-.2c-1.4-.7-2-.7-2 0 0 .5.7 1 1.6 1 .9 0 1.2.5.8 1.2-.6.9-.3.9.9 0 1.4-1.2 1.6-1 1.4 1.4-.1 1.5.4 2.8 1.1 3 .7.1.8 0 .2-.3-.5-.2-1-1.2-1-2.1 0-1.5.2-1.5 1.1-.2.8 1.2.9 1 .4-.8-.6-2.1-.5-2.2 1.4-1 1.2.7 2.1 1.6 2.1 2.1 0 .4-.4.5-1 .2-.5-.3-1-.1-1 .5 0 .7.7.9 1.6.6 1-.4 1.4-.2 1.1.6-.2.7-1.1 1.2-1.8 1-.8-.2-1.1 0-.7.4.4.4 0 1.3-1 2.1-1.5 1.3-1.5 1.3.5.3 1.2-.5 2.5-1.5 2.8-2 .4-.6 1.1-.8 1.6-.5.5.3.6 0 .4-.7-.4-.9.2-1.4 1.6-1.5 1.6-.2 1.8.1 1 1.1-1.3 1.6-.5 4.5 1.2 4.2.7-.1 1.8-.6 2.6-1 1.1-.7 1.3-.5.7.9-.5 1.4-.4 1.6.8.6 1.1-.9 1.3-.7 1.4 1.4 0 1.9-.4 2.3-1.3 1.5-.9-.8-1.4-.6-1.8.4-.4 1.1-.1 1.3 1 .9 1.2-.5 1.4-.3.8.8-.4.8-.5 1.1 0 .7.4-.4 1.6-.3 2.6.2 1.9 1.1 5.2.3 4.4-1-.3-.5-.1-1.1.5-1.5.6-.4.8-1.1.4-1.6-.3-.5-1-.7-1.5-.4-.5.4-.9.1-.9-.5 0-.7.7-.9 1.7-.5 1.4.5 1.5.3.6-.5-1.5-1.6-3.9-.1-3.8 2.4 0 1.1-.6 2.1-1.3 2.4-1.1.3-1.2 0-.5-1.4.5-1.1.9-2.6.8-3.4-.6-4.8-.5-4.6-1.5-3-.8 1.2-1.1 1.2-2.8-.3-1-.9-2.3-1.4-2.7-1-.5.5-.3 0 .4-1 1.2-1.6.8-2.2-1.2-1.8-.5.1-.6-.3-.3-.8s-.1-.8-1-.7c-.8.1-1.9.8-2.3 1.4-.5.9-1.2.4-2-1.4-1-2.4-1-2.6.2-1.5 1.2.9 1.8.8 3.1-.4 2.1-2.2 2-3-.5-3.2-1.6-.2-1.8.1-.9 1.2.7.8.7 1.5.1 1.9-.5.4-1.2.2-1.6-.4-1.1-1.7-2.8-1.1-2.1.7.5 1.6.4 1.6-.9-.1-1.3-1.7-1.2-2 .8-3.7 1.2-1 1.8-1.8 1.3-1.9-.6 0-2 1-3.3 2.2-1.3 1.2-2.3 1.6-2.3 1 0-.6.9-1.6 2.1-2.2 1.1-.7 1.8-1.4 1.5-1.7-.3-.3-1.3 0-2.3.8-1.4 1.2-1.6 1.2-.8 0 .6-1 .4-1.2-.6-.6-1.1.7-1.1.5.1-1.1 1.4-1.7 1.3-1.8-.1-.7-1.2 1-1.8 1-2.9 0-1-1-1.1-.9-.5.2.5 1 .4 1.2-.4.7-.6-.4-.9-1.2-.6-1.7.4-.5.1-.9-.4-.9-.6 0-1-.6-.8-1.3.1-.6-.5-1.2-1.3-1.2s-1.9-.5-2.3-1c-.5-.6-.7-.3-.3.7.8 2.5-.1 2.2-1.5-.3-.9-1.7-.8-2 .3-1.3 1.1.6 1.1.5 0-.8-1.1-1.4-1.1-2.1.1-4.5l1.5-2.8.1 2.5c.1 4.8.4 6 1.9 6 .9 0 1.2-.6.8-1.6-.3-.8-.2-1.2.4-.9.6.3 1 0 1-.7 0-.9.3-.9.8-.2.4.6 1.4 1.4 2.2 1.8.8.3.5.4-.8.2-1.5-.3-2.2 0-1.9.7.2.7 1.1 1.1 2 1.1.9-.1 1.5.2 1.2.6-.2.4.7 1.7 2 2.8 2.5 2.2 4 2.9 3.1 1.4-.2-.4 0-1.4.6-2.2.8-1.2.9-1.2.4.2-.6 2 1 3.4 1.8 1.6.3-.7.3-.3 0 .9-.3 1.5.1 2.5 1.6 3.3 1.3.7 2 .7 2 0 0-.5-.4-1-1-1-.5 0-1-.5-1-1 0-.6.8-.5 1.9.2 1.1.7 1.7 1.6 1.5 2-.5.7 1 1.2 2.9.9.7-.1 1.1 1.5.8 3.1 0 .5.8.8 1.9.8 1.1 0 2 .5 2 1.1 0 .5.5.7 1 .4.6-.3 1.3.1 1.6.9.3.9 1.1 1.3 1.6 1 .6-.4.5.2-.1 1.4-1.4 2.6-1.4 3.2-.1 3.2.6 0 1-.6 1-1.4 0-.8.5-1.8 1.1-2.2.7-.4.9 0 .5 1.3s0 2.5 1 3.4c1.5 1.2 1.6 1.1 1-1.1-.6-2-.5-2.2.4-.8.6.9 1.7 1.5 2.4 1.2.8-.3 1.7-.1 2.1.5.4.7-.1.8-1.2.4-1.2-.4-.9.4 1.1 2.5 3.1 3.3 4.9 3.6 2.5.5-1.1-1.5-.9-1.4.9.1l2.3 2-2.2 1.2c-1.2.6-1.7 1.4-1.2 1.7.6.4 2-.3 3.3-1.5l2.2-2.1-.7 2.2c-.6 2-.5 2.2 1.3 1.2 1.8-1 2-.8 1.7.9-.3 1.8 0 2 1.8 1.5 1.6-.4 1.8-.4.8.3-1.1.8-1.1 1 0 1.4 1.2.4 1.1.8-.1 2.3-1.4 1.7-1.3 1.8.3 1.2 1-.4 2.1-.7 2.3-.7.3 0 .3-.4 0-.8-.3-.5.1-.9.9-.9s1.2.4.9.8c-.2.4.5 1.3 1.6 1.9 1.1.6 2 .8 2 .4s1 .2 2.3 1.4c1.3 1.2 2.8 1.9 3.3 1.5.5-.5.6-.4.2.1-1 1.2 2 3.9 3.4 3 1-.5 1-.4.1.6-1 1.1-1.6 1.1-3.1-.3-2-1.8-3.2-2.2-3.2-.9 0 1.4 5.8 4.3 6.5 3.2.3-.5 1.1-1 1.8-1 .6 0 .1.7-1.1 1.6-1.2.8-1.9 2-1.6 2.6.4.5-.5.3-1.8-.6-1.4-.9-2.8-1.3-3.1-.9-.7.6-1.1-1.2-.8-3 .1-.5-.3-.6-.9-.2-.6.4-.7-.1-.4-1.2.5-1.5.4-1.5-.4-.3-.6.8-.9 1.7-.6 2.1.2.4-.3 1-1.1 1.3-1.3.5-1.4.2-.4-1.7 1.1-2 1.1-2.1-.4-.8-1.6 1.2-2.2.8-1.8-1.2.1-.5-.2-.6-.7-.3-.5.3-.9-.1-.9-.9s.5-1.5 1.1-1.5c.5 0 .1-.6-.9-1.4-1.1-.8-2.3-1.2-2.8-.9-.5.3-1.8-.3-2.9-1.4-1.5-1.2-1.9-1.3-1.4-.3.4.8 0 .6-.8-.4-1.4-1.8-1.4-2.1.1-3.8.9-1 1.1-1.8.5-1.8-.6 0-1.9 1.1-2.8 2.5-1.3 2-1.4 2.8-.4 4 .7.8.8 1.5.2 1.5-1.2 0-3.8-3-2.6-3 .5 0 .1-.5-.9-1.1-1.5-.9-1.6-1.3-.5-2.7 1.1-1.3 1.1-1.4-.1-.7-1 .6-1.2.4-.6-.5.5-.8.4-1.1-.1-.7-.6.3-1.6.2-2.4-.4-1.1-.6-1.2-.9-.2-.9.7 0 1-.5.6-1.1-.4-.8-.9-.7-1.5.2-.4.7-1.1 1-1.6.6-.4-.5-.1-1.3.7-1.8 1.2-.9 1.2-1-.2-.5-1 .3-1.7.2-1.7-.2.3-1.9-.2-3.3-1-2.8-.4.3-.7 2.1-.5 4 .1 2-.1 3.5-.4 3.5-.4-.1-1.4-.1-2.2 0-1.3.1-1.3.2 0 1.1.9.5 1.9.5 2.6-.1.8-.6 1.4-.6 1.8 0 .3.5 0 1.1-.6 1.4-.7.3.1.4 1.7.2 3.6-.3 5.2.4 3.4 1.6-.7.4-1 1.1-.6 1.6.5.4 1.1.2 1.5-.4.5-.9 1.2-.6 2 .8 1.2 1.9 1.1 2-.9 1.4-1.6-.6-1.1.4 2.1 3.4 4.8 4.6 7.7 5 7.2 1.1-.2-1.9 0-2.2 1-1.2 1.9 1.9 1.8 4.1-.3 4.7-1 .4-1.9 1.4-1.9 2.3 0 1.3.2 1.3 1.5-.4 1.3-1.7 1.6-1.7 2.6-.4.9 1.3 1 1.3.6-.2-.4-1.2 0-1.6 1.4-1.5 1 .1 1.9.7 1.9 1.5 0 .9.7 1.1 2 .7 2.3-.7 2.6-.2.6 1.4-1.1.9-1.8.8-3-.5-1.6-1.5-1.6-1.4-1.2.9.2 1.4 0 2.8-.5 3.1-.5.2-.4.3.3.2.7-.2 1.2-.9 1.1-1.5-.3-1.2 1-1.5 2-.4.4.3.2 1.2-.4 2-.9.9-.8 1.3 0 1.3.6 0 1.1-.4 1.1-.9 0-1.4 4-.7 5.1.9.9 1.3 1 1.3.8 0-.3-2.8.1-4.3.9-3.6.4.4.7 2 .8 3.4 0 1.9.5 2.7 1.8 2.5 1 0 1.5.4 1.2 1.2-.3.9.2 1.1 1.7.8 1.3-.3 1.7-.1 1.1.4-.9.6-.8 1.2.3 2.2 1.2 1.1 1.4 1 1.1-.4-.2-1 .3-2 1.1-2.3 1-.3 1.1 0 .5.9-.6 1.2-.5 1.2.8.1 1-.8 1.9-.9 2.2-.3.4.5-.3 1.2-1.4 1.6-1.1.3-2 1.1-2 1.7 0 .7.5.7 1.4-.1 1.6-1.3 4.9-.4 4 1.1-.4.6-1 .5-1.5-.3-.4-.7-1.1-1-1.6-.6-.9 1 1.7 2.8 2.9 2 1.1-.6 3.8 1.6 3.8 3 0 .7-.4.7-1.2-.1-.7-.7-1.6-1.2-2-1.2-.4 0 .1.9 1.3 2.1 1.3 1.3 1.8 2.8 1.4 4.2-.5 2.2-.5 2.2.6 0 1.3-2.6 1.7-2.7 3.9-1.3 1.5.9 1.3 1.1-1.2 1.4-1.7.1-1.7 2.9 0 3.2.7.1.8 0 .2-.3-1.2-.5-1.4-2.4-.2-2.2.4.1.9 0 1.2-.1 1.1-.5 6-.6 6 0 0 .3-.5 1.2-1.1 2-.8 1.1-1.2 1.2-1.6.2-.6-1.6-2-1.5-2 .1 0 1 1.3 1.3 4.3 1.2 4-.1 4.3 0 3.8 2.1-.3 1.2 0 2.5.6 2.9.9.5 1 .1.5-1.6-.4-1.3-.4-2.1 0-1.7.5.4 1.4.3 2.2-.3.9-.8 1.7-.8 2.6 0 .8.6 1.6.8 1.9.5.3-.2.8.2 1.1 1.1.8 1.9-.7 1.9-2.7 0-1.8-1.9-2.2-1.9-2.9-.1-.4 1.1-.1 1.3 1.1.9 1.3-.5 1.4-.3.5.7-.6.7-.9 2-.5 2.9.5 1.4.4 1.4-1.1.2-1.1-.9-1.7-1-1.7-.2 0 .6.5 1.1 1 1.1h1.8c.4 0 .7-.8.7-1.7 0-.9.6-1.8 1.4-2.1.8-.3 1.1 0 .8.6-.4.5.3 2.2 1.5 3.7 2.1 2.7 2.1 2.7 3.2.7 1.3-2.5 2.6-2.8 3.7-1 1.4 2.2 1 3.1-.8 1.7-.9-.8-1.4-.9-1-.3.4.7 0 1.5-.9 1.8-.9.4-1.4.9-1.1 1.3.4.3 1.3 0 2.1-.6 1.2-1 1.9-.8 3.5.8 1.3 1.3 2.1 1.6 2.4.8.2-.7.8-.8 1.3-.4.5.5-.1 1.7-1.4 2.8-1.9 1.5-2.1 2.2-1.2 3.6 1 1.6 1.1 1.6.6.1-.3-1 0-2.1.7-2.5.7-.5 2.1-2.1 3.1-3.7s1.3-2.5.7-2.2c-.7.5-.8.1-.4-1 .5-1.4.3-1.6-1.1-1.1-1.1.5-1.5.3-1-.5.5-.7.3-.8-.6-.3-.9.5-1.1.4-.6-.3.5-.8.2-1-.8-.6-.9.3-1.6.1-1.6-.6 0-.6-.4-.8-1-.5-.5.3-1 0-1-.7 0-.9-.3-.9-1 .2-.5.8-1 1-1 .5 0-.6.6-1.7 1.3-2.4 1-1.1.9-1.2-.2-.6-1 .6-1.2.4-.6-.5s.4-1.1-.6-.6c-.8.5-.8.2.2-.6.9-.7 1.4-2 1.2-2.8-.2-.8.4-.3 1.4 1.3 1 1.5 2.4 2.5 3.1 2.2.7-.2 1.5.2 1.8 1 .4.8 1.1 1.2 1.6.9.6-.4.5.2-.1 1.4-.9 1.8-.8 2.1.9 1.9 1.1-.1 2-.6 2-1.1 0-.5.6-.1 1.4.9.8 1.1 1.2 2.3 1 2.7-.3.5 0 .8.5.8.6 0 1.1-.5 1.1-1.2s1 .2 2.3 1.9c1.2 1.7 3 2.9 4 2.7.9-.1 1.5.2 1.2.6-.3.5-.1 1.1.5 1.5.6.4.8 1.1.5 1.6-.4.5-.1.9.4.9.6 0 1.1-.5 1.1-1 0-.6.4-1 1-1 .5 0 .9.6.7 1.2-.1.7.4 1.2 1.1 1.1.6-.2 1.2.7 1.3 2 0 1.2.3 1.6.6 1 .3-1 .8-.9 2 .2.8.8 1.9 1.2 2.5.9.7-.4.8-.2.4.4-.4.7-.1 1.2.8 1.2s1.6.5 1.6 1.1c0 .5.5.7 1.2.3.7-.4.8-.3.4.5-.6.9-1.1.9-2.2 0-.8-.6-1.4-.8-1.4-.3s-.5.2-1-.6-2.2-1.5-3.7-1.5c-2.2 0-2.7-.4-2.5-2 .2-1.7.1-1.8-.9-.5-.9 1.3-1 1.3-.5-.2.3-1 .1-2-.4-2.3-.6-.4-1 .3-1 1.5s-.5 1.8-1 1.5c-.6-.4-.8-1-.5-1.5.3-.4-.2-1.3-.9-1.9-1-.8-1.6-.9-2.1-.1-.3.5-.3 1 .1 1 .3 0 0 .8-.7 1.7-1.2 1.4-1.2 1.6 0 .9.9-.6 1.2-.5.9.5-.3.8-1.4 1.3-2.4 1.2-1-.1-1.4 0-.7.3s.9 1.3.6 2.2c-.3 1.1.1.8 1.1-.6 1-1.2 2.2-2.2 2.9-2.2.8 0 .8.3-.1 1.2-.7.7-1.2 1.6-1.2 2.1 0 .4 1.1-.5 2.5-2 1.3-1.5 2.5-2.3 2.5-1.6 0 .6-.7 1.8-1.5 2.7-2.1 2.1-1.9 2.8.4 1.4 1.1-.7 1.7-1.6 1.5-2-.8-1.3.5-.9 3.2.8 1.3.9 2.7 1.4 3.1 1.1.3-.4 1.2.1 1.8 1 1.1 1.4 1 1.9-.3 2.9-1.2.9-1.2 1.3-.2 1.9.9.6 1.1.4.5-.5-.6-1-.4-1.2.9-.7 1 .4 1.5.3 1.1-.3-.3-.6 0-1 .7-1 .8 0 .6-.5-.4-1.1-1-.5-1.8-1.5-1.8-2 0-.6.5-.7 1.3-.2.6.4 2.1.8 3.1.8 1.1 0 2.1.7 2.3 1.5.4 1.2.3 1.2-.5.1-.7-.9-1.2-1-1.6-.2-.4.6-.2 1.1.4 1.1.6 0 .8.5.4 1.2-.5.8 0 .7 1.1-.2 1.7-1.4 1.7-1.3 1.1 1-.5 1.8-.5 2.1.3 1 .5-.8 1.3-1.2 1.6-.8.3.3-.1 1.3-1 2.2-1.5 1.5-1.5 1.6.4 1.3 1.2-.2 2.7-1 3.4-1.7.9-1.1.7-1.1-.7 0-1.8 1.3-1.9 1.3-1.3-.2.3-.9-.1-2.2-.9-2.8-.8-.7-1.4-1.8-1.4-2.4 0-.6.5-.4 1 .4.8 1.3 1 1.2 1.1-.5.1-1.1.1-2.5-.1-3-.1-.6.4-.5 1 .1.9.9.9 1.7.1 3.3-1.6 3 .3 2.6 2.3-.4.9-1.4 2.2-2.5 2.9-2.5.9 0 .9.2 0 .8-1.2.7-.3 3.5 1.1 3.3 1-.1.9 1.3-.2 1.7-.5.1-1.3-.7-1.8-1.8-.9-2-.9-2-2.2.1-1.2 1.9-1.2 2.1.1 1.6 1.8-.7 1.7 1.7-.1 3.5-.7.7-1.2 1.7-1.2 2.3 0 .5.5.2 1.1-.7.5-.9 1.6-1.5 2.3-1.2.8.3 2.3-.3 3.4-1.3 2.8-2.7 4.5-2.8 3.7-.2-.5 1.5-.4 1.9.4 1.5.6-.4 1.1-1.3 1.1-1.9 0-.7 1.1-1.4 2.5-1.5 1.4-.1 2.5.3 2.5.9 0 .5-.5.7-1.2.3-.7-.4-.8-.3-.4.4 1 1.6 1.4 1.5 2.7-.9.9-1.7.8-2-.3-1.4-1 .6-1 .5-.1-.5 2-2.2 3.6-.1 1.8 2.6-.8 1.3-1.1 2.4-.5 2.4.5 0 1-.5 1-1.1 0-.6.6-.9 1.3-.6.6.2 1.1 1 .9 1.6-.1.7.2 1 .8.6.8-.5.8-1.1 0-2-.8-1-.4-1.7 2-2.8 1.6-.9 3-1.1 3-.6 0 .5-1 1.4-2.2 1.9-1.4.5-1.7.9-.7.9.8.1 2.1-.5 2.8-1.1 1.1-1.1 1.3-1 .8.5-.4 1.1-.3 1.6.4 1.2.5-.4.7-1.5.4-2.5-.5-1.6-.2-1.8 2-1.4 1.4.2 2.5 0 2.5-.6s-.4-.8-1-.5c-.5.3-1 .1-1-.5 0-.7.7-1 1.5-.7.8.4 1.7.2 2-.3.4-.6 1.1-1 1.8-1 .6 0 .2.7-.9 1.6-1.8 1.5-1.8 1.5.3.5 1.8-.9 2.3-.8 2.8.9.7 2.1 2.5 2.8 2.5 1 0-.6-.4-1-1-1-1.9 0-1-1.6 1-1.7 1.1-.1 1.8.2 1.5.8-.4.5-.1.9.4.9.6 0 1.1-.5 1.1-1.1 0-.5.5-.7 1.2-.3.7.5.8.3.3-.6-.5-.8-.3-1.1.6-.8.8.3 1.3 1.1 1.1 1.7-.1.7.2 1 .7.7.5-.4 1.2 0 1.4.6.4.9.6.9.6.1.1-.6-.6-1.8-1.4-2.7-.9-.8-1.1-1.7-.6-2.1.6-.3 1.4.3 2 1.2.7 1.2 1 1.3 1.1.4 0-.8.6-1.1 1.8-.7 1.5.5 1.5.5-.1-.8-1-.8-1.8-1.7-1.7-2.1.1-.4-.2-1-.6-1.3-.4-.4-.4-.1.1.7.6 1 .4 1.2-.5.6-.8-.5-1.1-.4-.6.3.4.7-.1 1-1.4.7-1.2-.2-2.3.2-2.6.9-.3.7-1.2 1.3-2 1.3-1 0-.3-1 1.6-2.5 3-2.3 3-2.5 1.4-4.3-1-1.1-1.4-2.2-1.1-2.6.4-.3.7-.1.7.5s.7.9 1.5.6c1.8-.7 4.7 1.4 3.9 2.7-.3.5.2.9 1.1.9.9 0 1.4.3 1.1.8-.2.4.2 1.6 1 2.7s1.4 1.4 1.4.6c0-1.1.3-1.1 1.8 0 1.6 1.3 1.6 1.3.2-.5-1.4-1.8-1.3-1.9.3-1.3 1.1.4 2.4.4 3 0 1.7-1.1 4.1-1 5 .2.5.6.7.4.4-.5-.2-.8-1.2-1.3-2.2-1.2-1.6.3-1.7.2-.6-1.2 1.1-1.3 1.6-1.4 2.9-.4 1.2 1 1.6 1 1.9 0 .3-.6.9-1.2 1.4-1.2.6 0 .7.6.3 1.2-.4.7-.4 1 .1.6.4-.4 1.5 0 2.3 1 1 1.2.9.9-.2-1-.9-1.5-1.2-2.9-.7-3.3.5-.3 1.1-.2 1.4.2.2.5.2.3.1-.4-.2-.7.1-1.5.6-1.8 1-.6 1.2.1 1.2 4.3 0 2 .1 2 .5.2.3-1.2.9-1.8 1.6-1.4.7.4.9.4.5-.1-.4-.4-.3-1.4.3-2.2.9-1 .8-1.3-.1-1.3-1.7 0-.4-1.3 1.6-1.6 1.6-.3 1.6 2.6-.1 3.8-.6.5-.5 1.1.3 1.8.6.5 1 .7.7.4-.9-1.3 1.6-3.3 3.3-2.8 1.5.5 1.5.4 0-.6-1-.6-1.8-1.6-1.8-2.2 0-.9.3-.9 1.2 0 .7.7 1.7 1.2 2.2 1.2.6 0 .3-.5-.6-1.1-1-.5-1.8-1.5-1.8-2.1 0-.7.5-.6 1.5.2.8.7 1.5.9 1.5.6 0-.4.7 0 1.6.9 1.5 1.5 1.9 1.4 4.5-1.7 1.5-1.8 2.8-2.8 2.9-2.1 0 .6-.4 1.5-1 1.8-.5.3-1 1.2-1 1.8 0 .7.5.4 1.1-.6.9-1.5 1.3-1.6 2.7-.5.9.7 1.4.8 1 .4-.4-.5 0-1.5 1-2.2 1.3-.9 1.9-.9 2.5-.1.6.8.7.6.3-.5-.3-1-.1-2 .4-2.3.6-.4 1-.1 1 .5s.5.8 1.1.4c.8-.4.7-.9-.2-1.5-.8-.5-1-.9-.5-.9s.3-.7-.4-1.5c-1.2-1.4-1.5-1.4-3.1 0-1.6 1.5-1.8 1.5-2.7-.2-.6-1-1.4-1.5-1.7-1.1-.4.4-.3 1.3.1 2 1.3 2 1.3 3.8.2 3.8-.6 0-.8-.7-.4-1.5.5-1.4.2-1.4-2.4 0-3.1 1.6-4.8 3.5-3.1 3.5.6 0 .8.7.5 1.5-1 2.4-2.2.8-1.9-2.5.1-1.6-.1-3-.6-3s-.9.9-.9 2.1c0 1.1-.5 1.7-1 1.4-.6-.4-.8-1.2-.4-1.8.3-.7-.6.1-2 1.6s-2.6 2.2-2.6 1.5c0-1-.2-1-.9.1s-.9 1.1-1.4 0c-.4-.9-.6-1-.6-.2-.1.7-1.2.2-2.6-1.1-2.7-2.5-3.1-3.6-1.4-3.6.5 0 .8.4.5.8-.2.4.4 1.3 1.5 2 2.1 1.3 2.6.3.7-1.6-.9-.9-.9-1.2 0-1.2.7 0 1.2.5 1.2 1.1 0 .5.4.7 1 .4.6-.4.7.1.3 1.2-.6 1.6-.5 1.7 1.1.4 1.7-1.4 1.7-1.6 0-2.8-1-.7-1.4-1.6-1.1-2 .4-.4 1.4.3 2.3 1.5 1.4 2 1.6 2.1 3.9.6 1.3-.9 2.8-1.3 3.4-1 .5.3 1.1-.1 1.5-.9.3-.9 1.2-1.2 2.2-.8 1.1.4 1.5.2 1.1-.4-.8-1.3 1.7-2.5 3.7-1.7.8.3 1.7.1 2-.5.4-.6 1.4-.7 2.4-.4 1.5.6 1.5.5.3-1-.7-.9-.9-1.7-.3-1.7.5 0 1.3.7 1.6 1.6.4.9.9 1.4 1.2 1.1.3-.3 0-1.6-.6-2.9-1.1-2.2-1.1-2.2.9.2 1.3 1.6 1.8 3.2 1.4 4.5-.5 1.7-.4 1.8 1 .6.9-.7 1.5-1.6 1.3-2-.3-.4-.2-1.1.2-1.6 1.1-1.6 5.6-5.1 4.9-3.9-.4.7.5 1.1 2.2 1.1 2 0 2.8-.4 2.4-1.4-.3-.7 0-1.3.7-1.3.6 0 .8.4.5 1-1.2 1.9 1.2 1 4.1-1.6 1.7-1.6 2.2-2.4 1.2-2.1-1 .4-1.8.1-1.8-.4 0-.6.9-.9 2-.6 1.2.3 2.4-.1 2.9-1.1.9-1.5 1-1.5 1 .3 0 2.7.6 5.3 1.4 6.1.4.4.7.2.7-.4 0-.7.8-1.2 1.7-1.2.9 0 1.3-.3 1-.7-.4-.3-.2-1.2.4-1.9.8-1 .6-1.2-1-1.1-1.5.1-2 .6-1.6 1.7.5 1.1.3 1.2-.6.3-1.3-1.3-.3-3.7 1.2-2.8.5.4.9.2.9-.4 0-.5-.8-1.2-1.7-1.4-1.5-.4-1.5-.5-.2-.6.9 0 2.4.8 3.4 1.9 1 1.1 1.5 2 1 2-.4 0-.1.8.6 1.7.9 1.1 1 1.4.2.9-.9-.5-1.1-.2-.7 1.1.5 1.5.4 1.6-.5.3-.6-.8-1.1-1-1.1-.4 0 2.1 2.5 3.5 3.8 2.2.9-.9 1.2-.9 1.2 0 0 .6-.9 1.6-1.9 2.2-2.3 1.2-3.4 1.3-2.7.2.2-.4-.2-1.5-.9-2.5-.8-1.2-1.5-1.4-2-.8-.3.6-.1 1.1.6 1.1s1 .3.6.6c-.3.3-1.2.2-1.9-.2-2-1.3-3.9-1.4-3.2-.2.5.7.2.8-.6.3-.9-.6-1.1-.4-.5.5.6.9.4 1.1-.5.5-.9-.6-1.1-.4-.5.5.5.8.4 1.1-.3.6-.6-.3-1.3-.2-1.7.4-.3.5-1.2 1-1.8 1-.8 0-.8-.3.2-.9.9-.6 1-1.1.2-1.5-.6-.4-1.1-.3-1.1.1 0 .5-1.1.9-2.4.9-1.5 0-2.2-.5-1.9-1.3.3-.7 0-1.3-.6-1.3-1.9 0-1.2 3.2.9 3.7 1.1.3 1.7 1 1.3 1.7-.3.6-.2.7.2.3.5-.4 1.7.7 2.8 2.5 1 1.8 1.6 2.5 1.3 1.5-.3-1 0-2 .9-2.3.8-.4 1.3-1 1-1.4-.3-.4.3-1.4 1.2-2.1 1.4-1.2 1.5-1.1.9.9-.5 1.4-.3 2.2.4 2.2.6 0 .9-.4.5-.9-.3-.5-.1-1.2.5-1.6.5-.3 1-.1 1 .6 0 .8.5.7 1.6-.2 1.5-1.2 1.6-1.1 1 1.1-.6 2.1-.5 2.2.4.7 1.3-2.1.5-3.8-1.5-3-1.1.4-1.3.1-.9-1.1.5-1.2 1-1.3 2.5-.5 1 .5 1.9 1.4 1.9 2 0 .5 1.7-.2 3.7-1.6 4.2-2.8 6.2-3.3 4.3-1-1.7 2.1-.1 3.5 2.5 2.4 1.8-.9 1.8-.9-.2-.5-1.3.2-2.3 0-2.3-.5 0-1 4.9-3.4 6.3-3.1.4.1.8-.3.8-.8.1-.6.2-1.4.3-1.9 0-.5.4-1.3.9-1.7.7-.7 1.1.8.8 3.6-.2 1.2 0 1.3.7.1.5-.7 1.6-1.8 2.3-2.3 1.1-.7.9-.8-.5-.4-1.3.4-1.7.2-1.3-.8.3-.7 0-1.9-.6-2.5-.8-.8-.8-1.1.1-1.1.7 0 1.5.6 1.8 1.4.3.8 1.2 1.7 2 2 .8.3 1.3.2 1-.3-.3-.4.1-1.7.9-2.7 1.3-1.8 1.4-1.8 2.3.7.6 1.5 1.9 2.9 2.9 3.3 1.6.5 1.7.5.1-.7-2.2-1.8-3-7.5-.7-6.2.6.4.8.9.5 1.2-.8.8 1.3 4.3 2.5 4.3.6 0 .3-.7-.6-1.6-.9-.9-1.3-1.9-1-2.2.3-.4 1.1 0 1.6.8.9 1.2 1 1.2.5-.2-.3-1 .2-2.1 1.1-2.7 1.9-1 2.7-4.1 1.1-4.1-.6 0-.8.7-.4 1.5.5 1.3.2 1.3-2.5-.1-1.7-.8-2.9-1.2-2.6-.7.7 1.2-1.6 3-3.5 2.7-1.1-.1-1.5.3-1.1 1.4.3 1 .1 1.3-.4.7-.4-.6-1.5-1.1-2.3-1.3-1.1-.2-1.1.1.3 1.2 1.5 1.2 1.5 1.4.2 1.9-.8.4-1.4.3-1.4-.1.3-1.9-.3-2.2-2.2-1.1-1.5.8-1.9.8-1.5 0 .4-.6.4-1.1.1-1.1-1 0-5.6 3.7-5.8 4.7-.1.4-1.2.8-2.4.9-1.3 0-2-.4-1.6-.9.4-.6.1-.7-.7-.2-.9.6-1.1.4-.5-.5.5-.8.4-1.1-.3-.6-.6.4-.8 1.4-.5 2.3.4 1.1.3 1.4-.5.9-1.3-.8-1.6-3.6-.4-3.6.4 0 1.5-.7 2.5-1.5 1.8-1.3 1.8-1.4-.1-3.3-1.1-1.1-2.3-1.8-2.6-1.6-.3.2-.4.1-.1-.3 1.1-1.5 3.4-1.1 2.8.5-.4.9-.2 1.3.5.8.6-.3 1.3.3 1.7 1.4.3 1.1 1.1 2 1.6 2 1.3 0 1.1-1.2-.6-3.4-.8-1.1-1.5-2.5-1.5-3 .1-.6.7 0 1.5 1.4 1.4 2.4 1.6 2.3 1.9-.9 0-.8.9-1.5 1.9-1.7.9-.1 1.5.2 1.1.7-.3.5 0 .9.7.9s.9.3.6.6c-.4.4-1.4.1-2.4-.7-1.5-1.2-1.6-1.2-1.1.2.4.9.1 2.2-.5 2.9-1 1-.8 1.1.8.5 1.1-.5 3-.8 4.3-.8 2 .1 2.1-.1 1-1.5-1.1-1.3-1.1-1.4.1-.7 1.1.6 1.3.4.8-.9-.4-1.1-.3-1.5.4-1.1.6.4.8 1.3.5 2.1-.4.9.2 1.3 1.7 1.1 2.9-.3 3.8-1.7 2.6-3.9-.6-1-.7-2.3-.4-2.8.7-1.1 3.5-.2 3.5 1.2 0 .6-.6.5-1.5-.2-1.5-1.3-2-.3-.7 1.5.9 1.2 4.3 1.9 4.1.8-.4-2.3.2-3.5 1.6-2.9 1.9.7 4.7-.3 3.9-1.5-.3-.5.2-.6 1-.3.9.3 1.6.1 1.6-.5s-.4-1.1-1-1.1c-.5 0-1-.5-1-1.2 0-.8.7-.5 1.8.5 1.6 1.7 1.6 1.9 0 3.1-1 .7-1.5 1.6-1.1 1.9 1 1 3.3-1.3 3.3-3.4 0-1 .5-2.1 1-2.4.6-.4.7-1.1.4-1.7-.4-.7-.2-.8.4-.4.9.5.9 1.3.2 2.6-1.6 3.1-1.1 3.7 1 1.1 2-2.4 2.8-5.7 1.1-4.6-.5.3-1.2.2-1.5-.3-.3-.5.2-.9 1.1-.9.9 0 1.8.9 2.1 1.9.2 1 .9 1.8 1.4 1.8.5 0 .6-.5.2-1.2-.4-.7-.3-.8.5-.4 1.5 1 .3 2.9-1.5 2.2-1.9-.7-1.8.8.1 2.4.8.7 1.5.8 1.5.3s1.6-2.8 3.5-5c2.6-3.1 3.1-4.2 2.1-4.6-1.4-.6-1.6-3-.3-4.3.3-.4.5.3.2 1.5-.3 1.4.1 2.1 1.2 2.1.9 0 1.3.6 1 1.4-.3.8.2 2 1 2.8 1.5 1.1 1.6 1.1 1-.5-.5-1.3.2-2.6 2-4.3 2.4-2.2 2.9-2.3 3.9-1 .6.9 1 2.8.8 4.2-.2 1.8.1 2.4 1.1 2 .8-.3 1.7 0 2.1.6.4.7.3.8-.4.4s-1.2-.2-1.2.3c0 .6.5 1.1 1.1 1.1.5 0 .8.4.4 1-.3.5-1.2.7-2 .4-.8-.4-1.3-1-1-1.4.3-.5 0-1.2-.6-1.6-.7-.4-.9-.3-.6.3.4.6-.5 1-2.1.9-1.7 0-2.6.4-2.4 1.3.1.7-.2 1-.7.7-.5-.4-1.2-.2-1.6.3-.3.5-1.5.9-2.6.8-2-.1-1.9-.3.6-2.3 2.4-1.9 2.5-2.2.9-3.5-1.6-1.2-1.7-1.2-1.1.3.4 1.1.2 1.5-.7 1.2-.7-.3-1.3.2-1.4 1.1-.1.8-.3 2.2-.4 3-.1.8-.5 1.5-1 1.5s-.7.4-.4.8c.2.4.1 1.4-.5 2.2-.5.8-.9 1-.9.5 0-.6-1.1-1.1-2.5-1.1-1.3-.1-2.3.3-2.2 1 .1.7-1.2 1.1-3.5 1-2.1 0-3.5.3-3.1.9.3.5-.6.2-1.9-.7-2.2-1.4-2.6-1.4-4.4-.1-1.8 1.4-1.7 1.5 1.2 1 2.2-.3 3.6 0 4.5 1.2.9 1.1 1 1.4.2.9-.9-.5-1.1-.2-.7.8.4 1-.1 1.8-1 2.2-1.5.6-1.4.8.4 2.4 1.1.9 1.6 2.1 1.2 2.5-.4.5-.1.5.6.1 1.1-.7 1-1.1-.2-2.5-1.8-2-1.2-3.1 1.6-3.1 1 0 1.8-.4 1.8-1 0-.5-.8-.6-1.7-.3-1.6.6-1.6.5-.4-1.1 1.4-1.7 1.6-1.7 2.7-.1.7.9 1 2.3.8 3-.3.8.5 1.9 1.8 2.5 2.2 1.1 2.3 1.1.3-.6-1.4-1.1-1.6-1.8-.8-2.1 1-.3.9-.8-.3-2-.8-.8-1.2-1.8-.9-2.1.3-.4 1.1 0 1.6.8.8 1.2.9 1.1.7-.5-.2-1.4.4-2.1 2.1-2.3 1.5-.2 2.1 0 1.6.7-.3.6-1 .9-1.4.7-.4-.3-.8.4-.8 1.5-.2 1.8.1 1.7 1.9-.6 1.1-1.4 2.3-2.4 2.6-2.1.3.3-.3 1.5-1.3 2.6-1.6 1.8-1.6 2-.2 2.6.9.3 2.2.4 2.9.1.7-.3.3-.6-1-.6-2.3-.1-2.3-.1-.5-2.5 1-1.3 2.2-2.2 2.6-1.9.4.3.3 1.1-.4 1.9-1.4 1.7-.3 1.9 1.5.2 1-.9.9-1.5-.6-3-1-1-1.8-2.4-1.8-3.1.1-.6.9-.2 2 1.1s2.4 2.1 2.9 1.8c.5-.4 1.4.2 2 1.1.6 1 1.1 1.3 1.1.8 0-.6-.5-1.6-1-2.1-.8-.8-.6-1.5.5-2.4 1.5-1.2 1.6-1.1 1.3.5-.1 1 .3 1.9 1 2.1.7.1.8 0 .2-.3-1.5-.7-.2-2.3 1.5-1.7.8.3 2.1-.5 3-2 2-3 4.1-3.6 2.6-.7-1.1 1.9-.5 3.1 1.3 3.1.7 0 .7-.3-.1-.8-1.4-.9-.6-2.2 2.2-3.8 1.3-.8 1.9-2.1 1.8-3.5-.3-2.3-.1-2.2 2.7.9 1.7 1.8 3 2.8 3 2.3 0-.6-.5-1.3-1.1-1.7-.8-.4 0-1.7 2.2-3.7 2.5-2.2 2.8-2.8 1.3-2.3-1.4.4-2.7 0-3.9-1.4-1.9-2.1-.8-2.9 1.3-.8 1.6 1.6 2.6.3 1.3-1.9-.8-1.4-1-1.4-1.1-.3 0 1.2-.2 1.2-.9.1-.7-1-1.2-.8-2.5 1-1 1.5-1.6 1.8-1.6.9 0-1.3-.1-1.3-1 0-.5.9-.5 1.9.1 2.6.7.8.6 1.4-.1 1.9-.5.3-1-.1-1-.9s-.9-2-2-2.6c-1.6-.8-2.1-.6-3.1 1.2-.9 1.8-.9 2.1.1 1.1.7-.6 1.9-.9 2.6-.6 2.3.9 1.6 1.8-1.6 1.9-1.8.1-2.9-.3-2.8-1 .1-.6-.4-2.2-1.1-3.4-.7-1.3-1-2.7-.6-3 .3-.3.8.4 1.2 1.6.3 1.2 1 2.2 1.5 2.2s.6-.6.2-1.3c-.4-.6-.4-.9.1-.5.4.4 1.6.3 2.7-.3 1.9-1 1.9-1.1.1-3.2-1.8-2.2-1.8-2.2.3-.5 2.6 2.3 3 2.2 3.7-.2.3-1.2-.1-2.4-1.1-3-1-.5-1.2-1-.5-1 .6 0 1.5.5 1.8 1 .4.6 1.1.8 1.6.4.6-.3.2-1.2-.8-1.9s-1.5-1.7-1-2.1c.4-.4.7-.2.7.5s.4 1 .9.6c.5-.3 1.2.4 1.6 1.5.3 1.1 1.3 2 2.2 2 1.4 0 1.4-.2-.1-1.9-.9-1-1.6-2.2-1.5-2.7.4-2.1-.2-2.8-1.1-1.4-.6.9-1 1-1 .3 0-2.1 1.6-2.3 3.7-.4 2 1.9 2 1.8 3.6-.9.9-1.5 1.4-3 1-3.3-.3-.4 0-1.3.7-2.2.7-.8.8-1.5.2-1.5-1.6 0-3.3 2.6-2.6 4.3.3.8 0 1.8-.6 2.2-1.2.8-4-1.2-4-2.8 0-.6.6-.2 1.4.9.8 1 1.8 1.5 2.2 1.1.5-.4.3-1.1-.4-1.6-.9-.5-.7-1.3.7-2.8 1.1-1.1 1.7-2.4 1.3-2.7-.3-.4.2-.4 1.2 0 1.5.6 1.7.4 1.1-.6-.6-.9-.4-1.1.5-.5.7.4 1.5.3 1.9-.3.4-.7 1.1-.4 2 .9.9 1.6.9 1.9 0 1.4-.8-.6-1-.4-.4.5s.4 1.1-.5.5c-1-.6-1.1-.4-.4.6.5.8.9 3.1 1 5.2.1 3.4-.5 4.2-2.9 3.8-.5-.1-.6.3-.3.8.7 1.1-1.3.9-3.1-.2-.7-.5-1.3-.4-1.3.2 0 .5.6 1.2 1.3 1.5.8.3.5 1.1-1.1 2.5-1.2 1.1-1.8 2.2-1.3 2.5.5.4 1.2 0 1.5-.6.3-.7.4-.4.1.7-.2 1.1-.1 2.5.3 3.1.8 1.3 4.4 1.5 3.6.2-.3-.4 0-.8.7-.8s.9-.3.6-.6c-.4-.4-1.3-.2-2 .4-.8.7-1.7.9-2 .5-1.3-1.2-.7-1.9 2-2.1 3.5-.3 4.2-1.1 2.2-2.5-1.7-1.3-1.5-3.7.3-3.7.6 0 .8.3.5.6-.3.4 0 1.6.8 2.7 1.2 1.7 1.2 2.3-.2 4.4-1.1 1.7-1.3 2.7-.6 3.4.8.8 1.3.7 1.8-.2.5-.8.4-1-.3-.5-1.6 1-1.5-.6.2-2.9.8-1.1 1.1-2.6.8-3.4-.3-.8-.1-1.2.5-.8 1.3.8 2.5-1.7 1.7-3.7-.3-.8-1.2-1.2-2.1-.9-1.3.5-1.3.3-.4-1.5.7-1.2 1.6-2.2 2.2-2.2.6 0 .8.3.5.8-.2.4.2 1.8 1 3.2l1.5 2.5-.7-2.5c-.5-2-.4-2.3.7-1.2.7.6 1.7 1.2 2.2 1.2.4 0-.5-1.1-2-2.5-1.5-1.3-2.3-2.5-1.6-2.5.6 0 1.5.5 1.8 1 .8 1.3 3.5 1.3 3.5 0 0-.5-.6-.7-1.4-.4-1.1.4-1.3 0-.9-1.5.3-1.2.1-2.1-.6-2.1-.5 0-.8.7-.4 1.6.5 1.4.3 1.5-1.7.4-1.5-.8-2-.8-1.6-.1.4.6.2 1.1-.4 1.1-.6 0-1-.7-.8-1.6.2-.8.5-1.4.8-1.3.3.1 1.5-.3 2.7-.9 1.8-1 2.4-.9 3.1.4.8 1.4 1 1.2 1-1 0-1.4-.4-2.9-.9-3.2-1.5-.9-1-2.1 1-2.7 1.4-.3 1.8-1.1 1.4-2.6-.4-1.7-.2-2 1.1-1.5.9.3 1.6.2 1.6-.4 0-.6-.8-.9-1.7-.8-1 .2-1.8 1.1-1.8 2.2 0 2.4-3.3 3.8-5.1 2.3-1-.8-1.4-.8-1.4 0 0 .6.5 1.1 1 1.1 1.8 0 1 1.6-.9 1.7-2 .2-2.1-.6-.4-4.7 1.2-2.9-.1-4.6-6.3-7.9-2.1-1.2-3.2-2.1-2.4-2.1 1.3 0 1.3-.1 0-1-.9-.6-1-1-.3-1s1.7.9 2.3 2c.6 1.1 1.5 1.8 2 1.5.5-.3 1.2 0 1.6.6.5.8.9.7 1.4-.2.7-1 1.1-1 2.4 0 .9.8 1.6.9 1.6.3 0-.6-.6-1.2-1.2-1.5-1-.4-1-.7 0-1.8.6-.7 1.2-1.7 1.2-2.2 0-.4-1.1.5-2.4 2-1.3 1.5-2.7 2.5-3 2.2-.3-.3.4-1.6 1.5-2.8 1.2-1.2 1.9-2.5 1.6-2.7-.3-.3-1.5.9-2.7 2.6-1.2 1.7-2.5 2.9-2.7 2.6-.3-.3.7-2.2 2.2-4.2 1.6-2.1 2.3-3.4 1.5-2.9-1 .6-1.2.4-.7-.9.4-1 .3-1.5-.3-1.1-.6.4-.9 1.4-.8 2.2.2.9-.3 1.8-1 2-.7.3-1-.1-.6-1 .8-2.1-1.1-3-2.6-1.2-1 1.2-.9 1.6.4 2.1.9.3 1.4 1 1.1 1.5-.9 1.3-3.2 0-3.2-1.9 0-.9.7-2.5 1.5-3.5 1.4-1.6 1.4-1.7 0-1.2-1.2.5-1.4-.1-1.2-3.2.2-2.1.5-6.4.6-9.5.3-5.8.7-6.7 3-7.2.7-.2 2.8-.9 4.6-1.6 5.5-2.1 4.2-4.1-8-12.1-6.2-4.1-11.7-7.6-12.2-7.8-.5-.2-13.5-8.5-29-18.4-15.5-9.9-31-19.8-34.6-22-3.5-2.2-7-4.6-7.8-5.3-.7-.8-1.8-1.4-2.3-1.4-.5 0-.9-.6-.9-1.4 0-.8-.4-1.8-1-2.1-.6-.3-.7.1-.4 1 .5 1.3-.1 1.2-3-.6-2-1.1-3.6-2.5-3.6-3.1 0-.5-.5-.6-1.1-.2-.9.5-1-.1-.5-2.2.7-2.6.6-2.7-.6-1.1-1.3 1.7-1.5 1.7-5-.7-2-1.3-3.9-2.2-4.1-1.9-.3.2-1.6-.9-2.8-2.6-1.7-2.3-2.8-3-4.3-2.5-1.7.4-1.8.3-.6-.5 1.3-.9 1.2-1.1-.5-1.2-1.1-.1-2.4-.1-2.8 0-.5.1-.6-.2-.4-.6.3-.5-.1-1.3-.8-2-1.1-1-1.5-1-1.8 0-.3.7-.5-.9-.5-3.5.1-4.5.2-4.8 3.7-5.9 2-.6 5-2 6.7-3 1.7-1 3.4-1.7 3.7-1.4.4.3.5.2.2-.2-.3-.3 2.3-2.5 5.8-4.8 10.9-7.4 12.1-13.1 4-20.3-2.6-2.3-5.3-4.2-6-4.2-.7 0-1.3-.4-1.3-.9s-1.2-1.2-2.6-1.5l-2.5-.7 2.1-2.7c6.8-8.8 11.2-17.6 17.2-35.2 8.9-25.8 11.7-39.1 11.3-54-.2-6.3-.6-12.6-.9-14-.3-1.4-1-4.5-1.5-7-5.5-26.2-20.7-51.2-42.2-69.2-15.4-12.9-42.4-27.4-60.4-32.5C270.8.9 254.4.1 241.1 3zM111.5 96c-.3.5-1.2 1-1.8 1-.7 0-.6-.4.3-1 1.9-1.2 2.3-1.2 1.5 0zM63.8 352.2c1.5 1.5 1.6 4.2.2 3.3-.6-.4-.8-1-.5-1.5.3-.5.1-1.2-.5-1.5-.6-.4-.9-.1-.8.6.2.7-.5 1.5-1.4 1.7-1 .2-1.8-.2-1.8-.8 0-.6.4-.8 1-.5.6.3.7-.1.4-.9-.7-1.9 1.6-2.2 3.4-.4zm1.7 3.8c.4-.7 1.2-.7 2.6 0 1.1.6 1.6 1.6 1.3 2.2-.5.7-.2.9.8.6.8-.4 2.8.6 4.5 2.2 1.7 1.6 3.4 2.6 3.9 2.2.5-.4.2.1-.5 1.1-1.3 1.6-1.2 1.9.8 2.4 1.7.4 2 .8.9 1.5-.9.7-.8.8.7.5 1.1-.2 1.9-.9 1.7-1.7-.3-1.1 0-1.1 1.2-.1 1.6 1.4 1.2 3.6-.5 2.6-.5-.4-.9-.2-.9.4 0 1.8 1.7 2.1 3 .6 1.3-1.6 3-1.1 3 .8 0 .8-.3.8-.9-.2-.5-.8-1.1-.9-1.5-.3-.3.6-.2 1.3.3 1.7.6.3.8 1.9.6 3.4-.2 1.6.3 3.8 1.1 4.8 1.6 2.2 1.8 4.3.3 4.3-.6 0-.8-.7-.5-1.5.3-.9-.1-1.8-.8-2.1-.8-.3-1.3-1.4-1.1-2.5.2-1.1 0-1.7-.5-1.4-.4.3-.6-.5-.2-1.7.3-1.3.1-1.9-.6-1.5-.8.6-1 3.5-.2 4.4.2.2.3.9.4 1.5.3 2.3-1.7 2.6-3.7.7-1.4-1.2-2.8-1.7-4.1-1.3-1.8.6-1.9.5-.8-.9 1.6-1.9 5.5-1.9 4.7.1-.2.7-.1 1.1.4.7.5-.3 1.1.1 1.4.7.3.7.4.2.3-1.2-.3-3.2-1.3-5-2.9-5-.8 0-.8.3.2.9.9.6 1 1.1.2 1.5-.6.4-1.1.3-1.1-.2s-1.1-1.4-2.5-2c-1.4-.6-2.5-1.7-2.5-2.3 0-.8.4-.8 1.5.1s1.5.9 1.5.1c0-.7.5-.9 1.1-.5.8.4.7.9-.2 1.5-1.6 1-.8 1.2 1.6.3 1.3-.5 1.4-.8.3-1.5-1-.7-1-.9 0-.9.8 0 .6-.6-.5-1.8-1.2-1.1-2.1-1.4-2.5-.8-.4.6-1 .7-1.5.3-.4-.5-.1-1.2.6-1.6 1.1-.7 1.1-1 0-1.7-2-1.2-3.8-1.4-4.5-.3-.3.5-.2.9.3.8 2.2-.4 3 .3 2.8 2.3-.1 1.3-.8 2.3-1.6 2.3s-1.3-.6-1.1-1.4c.5-2.2-2-4.3-4.4-3.7-2.4.6-4.2-.8-2.4-1.9.5-.3 1-.1 1 .6 0 .9.4.8 1.5-.1 1.2-1 1.2-1.5-.2-3.6-1.5-2.3-1.7-2.4-3.4-.8-2 1.8-4.1 1.1-3.7-1.4.4-2.3 2-3.3 3.4-2.1.8.7 1.4.6 1.9-.1zm12.9 13.8c.2.4-.5.9-1.7.9-1.7.2-1.9 0-.7-.7 1.8-1.2 1.8-1.2 2.4-.2zm14.1 4.2c.3.5.1 1-.4 1-.6 0-1.1-.5-1.1-1 0-.6.2-1 .4-1 .3 0 .8.4 1.1 1zm380.5 6c0 .5-.5 1-1.1 1-.5 0-.7-.5-.4-1 .3-.6.8-1 1.1-1 .2 0 .4.4.4 1zm-380.4 1.8c-.7 1.2 2.3 5.4 3.4 4.7.4-.3 1.3.2 1.9.9 1.6 1.9-.3 3-2.1 1.2-1.3-1.2-1.6-1.1-2.7.6-.7 1.1-1.5 1.7-1.8 1.4-.4-.3.1-1.4 1-2.3 1.3-1.6 1.4-2 .1-3.7-.9-1.3-1.4-1.5-1.4-.6 0 .7-.2 1.1-.5.8-.8-.8.6-3.8 1.7-3.8.5 0 .7.4.4.8zm-7.5 2.3c-1.3 1.1-2.7 1.7-3 1.3-.7-.7 2.8-3.4 4.3-3.4.6.1 0 1-1.3 2.1zm28.2 16.2c-.2.4-.5.7-.8.7H111c-.5 0-1-.4-1-.9s.8-.8 1.8-.7c.9.2 1.6.6 1.5.9zm363.3-.4c-.3.5.1 1.4.9 2.1.8.7 1.5.8 1.5.3 0-1.6 4.3-1 4.8.6.3.9 0 1.1-.7.7-.7-.4-1.8-.2-2.6.4-.8.7-1.5.9-1.5.5s-.6-.2-1.3.4c-1.7 1.4-3 .2-1.6-1.5.7-.8.7-1.4-.1-1.9-1.3-.8-1.3-2.5.1-2.5.5 0 .8.4.5.9zm-11.3 3.6c-.3.9-.8 1.4-1 1.1-.3-.3-.2-.9.2-1.5.9-1.6 1.5-1.3.8.4zm-343.6 3.7c-.7 1-1.6 1.8-2.1 1.8-.4 0-.3-.6.3-1.3.6-.8.9-1.6.6-1.9-.3-.2.1-.5.9-.5 1.1 0 1.2.4.3 1.9zm338.7 2.3c-.4.8-.8 1.5-1.1 1.5-.3 0-.2-.7.1-1.6.4-1.1.2-1.5-.7-1.1-.8.3-1.4-.1-1.4-.8 0-1 .5-1.1 1.8-.4 1.1.5 1.6 1.6 1.3 2.4zm-329.7 2.7c.2-.2.7-.1 1 .2.3.3-.4.3-1.7.1-1.2-.2-2.8-1.2-3.6-2.2-2.3-3.1-1.5-3.5 1.2-.6 1.4 1.5 2.8 2.6 3.1 2.5zm324.7-4.3c.3.5-.1 1.1-.9 1.4-.9.4-1.2.1-.8-.9.6-1.6 1-1.7 1.7-.5zm20.9.6c.4.8.3 1.6-.1 1.9-.4.3-.9-.4-.9-1.5-.2-2.3.3-2.5 1-.4zm-19.3 4.6c0 .5-.4.9-.8.9-.5 0-.9-.7-.9-1.5s.4-1.2.9-.9c.4.3.8.9.8 1.5zm-8.5-.1c-.3.5-.1 1 .6 1s1 .3.6.6c-.9.9-2.8-.6-2.2-1.7.4-.5.8-.9 1.1-.9.3 0 .2.4-.1 1zm-5.5 1c0 .5-.5 1-1.1 1-.5 0-.7-.5-.4-1 .3-.6.8-1 1.1-1 .2 0 .4.4.4 1zm35 2.1c0 .5-.4.9-1 .9-.5 0-1.3.1-1.7.2-.3.2-.7-.4-.8-1.3-.2-1.2.3-1.5 1.6-1.2 1 .3 1.9.9 1.9 1.4zm-337.1 2.5c.6.1 1.4.3 1.9.4.4.2 1.3.4 2.1.4.8.1 1.5.9 1.7 1.9.3 2.1-.9 2.2-2.6.2-1.6-1.9-3.3-.9-2.5 1.6.4 1.3.2 1.9-.9 1.9-.9 0-1.6-.5-1.6-1.1 0-.5.5-.7 1.2-.3.7.4.8.3.4-.5-.4-.6-1.2-.9-1.7-.5-1.2.7-3.9-1.4-3.9-2.9 0-.7.4-.7 1.2.1.7.7 1.5 1.2 1.9 1.2.9 0 .6-2.7-.4-3.6-.4-.4-.7-1.2-.7-1.8 0-.5.6-.1 1.4 1 .8 1 1.9 2 2.5 2zm315.4-2.2c.9.7 1.7 1.7 1.7 2.1 0 .5-.8.1-1.8-.8-1-1-2.2-1.4-2.5-1-.4.3-.7.1-.7-.5 0-1.5 1.1-1.5 3.3.2zm14.3.1c-.3.8.3 1.9 1.2 2.5 1.6 1.1 1.6 1.1 0 .6-1.1-.3-1.8 0-1.8.7 0 .8-.3.7-.9-.2-.6-.9-.5-2.1.2-3.3 1.4-2.2 2.1-2.4 1.3-.3zm-22.6-.1c0 .2-.7.7-1.6 1-.8.3-1.2.2-.9-.4.6-1 2.5-1.4 2.5-.6zm1 2.6c0 .5-.5 1-1.1 1-.5 0-.7-.5-.4-1 .3-.6.8-1 1.1-1 .2 0 .4.4.4 1zm5.2 2c.6 0 .9.2.6.5-1.2 1.2-3.7-.7-3-2.3.6-1.6.7-1.5 1 0 .2 1 .8 1.8 1.4 1.8zm-28.7-1c-.3.5-1.2 1-1.8 1-.7 0-.6-.4.3-1 1.9-1.2 2.3-1.2 1.5 0zm11.5 0c0 .5-.5 1-1.1 1-.5 0-.7-.5-.4-1 .3-.6.8-1 1.1-1 .2 0 .4.4.4 1zm7.7 3.2c-2.5 2-3.7 2.2-3.7.8 0-.6.3-.9.8-.8 1.8.4 4-1.5 3.5-3-.4-1.5-.3-1.5.6-.2.8 1.2.5 1.9-1.2 3.2zm-12.3-1.3c.3.5-.2 1.5-1.2 2.2-1.5 1.2-1.6 1.2-.5-.2.7-.9 1-1.9.6-2.2-.3-.4-.4-.7 0-.7.3 0 .8.4 1.1.9zM147.5 425c.3.6-.1.7-.9.4-1.8-.7-2.1-1.4-.7-1.4.6 0 1.3.4 1.6 1zm316.6 1.6c1.7 2-.7 4.9-2.6 3.1-.7-.7-1.1-1.4-.9-1.6.2-.2 0-.9-.6-1.5-.6-.8-.3-1.2 1-1.3 1-.1 2.4.5 3.1 1.3zm-35.6.4c.3.6-.1.7-.9.4-1.8-.7-2.1-1.4-.7-1.4.6 0 1.3.4 1.6 1zm2.9.6c.3.8.2 1.2-.4.9-.6-.3-1-1-1-1.6 0-1.4.7-1.1 1.4.7zm4 1.6c.4-.6.4-1.8 0-2.5-.5-.9-.4-.9.6 0 1.1 1 1.1 1.5 0 2.7-1.6 2-3 1.1-2.9-1.7.1-2 .2-2 .8.3.5 1.7.9 2.1 1.5 1.2zm-269.6-1c-.2.7.3 1.2 1 1 .6-.1 1.1.1 1.1.5-.1.5-.1 1.5.1 2.3.1 1.1.4.9 1.1-.5l.9-2-.3 2c-.2 1.2-.9 1.8-1.8 1.6-.8-.2-2-.4-2.6-.4-.7 0-1.3-.5-1.3-1s-.7-.4-1.5.3-1.2 1.6-.9 2.1c.3.5-.2.6-1.1.3-.9-.4-1.3-.9-1.1-1.2.3-.3 0-1.2-.7-2.1-1-1.4-1-1.4.3-.4 1 .8 2.1.9 3 .3.8-.6 1.1-1 .5-1-.5 0-.1-.7.9-1.5 2.4-1.8 2.7-1.8 2.4-.3zm252.3.5c1.2 1.6 1.2 1.7-.2.6-.9-.7-2-.9-2.4-.5-.5.4-.5.1-.1-.6.9-1.6 1.1-1.5 2.7.5zM157 430.2c0 .4-.5.8-1.1.8-.5 0-.7.5-.3 1.2.4.7.3.8-.5.4-.6-.4-.9-1.3-.5-1.9.3-.7-.1-.4-.9.5-.8 1-1.7 1.5-2 1.1-1.1-1 1.3-3.2 3.4-3 1 .1 1.9.5 1.9.9zm247-.6c0 .8-1.9 1.3-2.4.6-.3-.5.1-.9.9-.9s1.5.2 1.5.3zm3 .4c0 .5-.5 1-1.1 1-.5 0-.7-.5-.4-1 .3-.6.8-1 1.1-1 .2 0 .4.4.4 1zm50.2.9c-.3.9-.1 1.2.6.7.7-.4 1.2-.3 1.2.2 0 1.3-2.6 2.3-4.3 1.6-2.3-.9-1.8-4 .8-4 1.6 0 2.1.4 1.7 1.5zm-36.2.7c0 .8-1.9 1.3-2.4.6-.3-.5.1-.9.9-.9s1.5.2 1.5.3zm4 .4c0 .5-.5 1-1.1 1-.5 0-.7-.5-.4-1 .3-.6.8-1 1.1-1 .2 0 .4.4.4 1zm-251.6 2.7c.8 1.6 1.5 2.2 1.6 1.5 0-1.6 1.7-1.5 2.3.2.4 1-.3 1.2-2.5 1-2.5-.3-2.8-.2-1.8 1 .6.8 1.8 1.2 2.6.9 1.7-.6 1.9 1.3.2 2.3-.7.5-.8.3-.3-.6.5-.9.4-1.1-.4-.6-.8.6-.9 1.2-.2 2 .6.7.7 1.7.3 2.1-.4.5-.1.5.7 0 1-.6 1.2-.4.6.4-.4.7.4.5 1.9-.4 2.8-1.9 3.5-3 1.1-2.2-2.1.9-2.7-.7-1-2.9 1.6-2.3 2.1-1.5 3.4 5.6.1.3.5-.2 1.1-1 .5-.8.6-1.9.2-2.5-.4-.6 0-.3.9.7.9.9 2 1.4 2.5 1 .5-.4.2.1-.5 1-.7 1-1.7 1.5-2.2 1.2-.5-.3-.9.2-.9 1.1 0 .9-.5 1.3-1 1-.6-.4-.7-1.1-.4-1.7.5-.7.2-.8-.6-.3-.9.6-1.1.4-.5-.5.6-.9.4-1.1-.4-.5-.9.5-1 1-.2 1.8.6.6 1.1 1.6 1.1 2.1 0 .6-.4.4-1-.4-.5-.8-1.2-1.1-1.7-.7-1.1 1.1 1.7 2.6 3.5 1.9 1-.3 1.3-.1.8.6-.3.6.2 1.5 1.1 2.1 2.8 1.6.5 1.3-2.8-.4-1.6-.9-3.5-1.3-4.1-.9-.8.5-.9.2-.5-.9.7-1.9-3.6-9-4.8-7.9-.5.4-.5.2-.2-.4.7-1.1-.7-2.9-2.8-3.6-.5-.1-.9-.8-.7-1.3.1-.6-.4-.2-1.1.7-1.6 2-4.1.8-4.3-2.1-.1-2.5 2.7-2.3 5.6.2 1.1.9 2.1 1.5 2.1 1.2.5-2 .7-2.6.8-3.5.2-1.7 1-1.1 2.5 1.7zm223.2-.5c.3.4-.1.5-1 .4-.8-.1-1.8-.5-2.2-.8-.3-.4.1-.5 1-.4.8.1 1.8.5 2.2.8zm22.9.6c-.3.3-1.1 0-1.8-.7-.9-1-.8-1.1.6-.5 1 .3 1.5.9 1.2 1.2zm25.9-.9c.3.4-.5 2-1.7 3.5l-2.3 2.7-2-2.2c-1-1.3-1.3-1.9-.6-1.5.7.4 1.8.3 2.5-.2.7-.6 1.7-1.2 2.2-1.4.6-.1.9-.6.8-1.1-.4-1 .5-.9 1.1.2zm5.3 2.5c-.5 1.5-2 1.7-3.7.5-1.1-.8-1.2-1.2-.2-1.6.6-.2.9-.9.6-1.5-.3-.5.3-.4 1.5.4 1.2.7 2 1.7 1.8 2.2zm-44.1-.5c0 1.1-.5 1.7-1.3 1.4-1-.4-1.1-.9-.2-1.9 1.5-1.8 1.5-1.8 1.5.5zm7.1-1.3c-.3.3-1.2.4-1.9.1-.8-.3-.5-.6.6-.6 1.1-.1 1.7.2 1.3.5zM161 436c0 .5-.5 1-1.1 1-.5 0-.7-.5-.4-1 .3-.6.8-1 1.1-1 .2 0 .4.4.4 1zm231.3.5c.4.8.3 1.6-.1 1.9-.4.3-.9-.4-.9-1.5-.2-2.3.3-2.5 1-.4zm25.5-.7c.8.6.2.9-1.8.9s-2.6-.3-1.8-.9c.7-.4 1.5-.8 1.8-.8.3 0 1.1.4 1.8.8zM387 438c0 .5-.5 1-1.1 1-.5 0-.7-.5-.4-1 .3-.6.8-1 1.1-1 .2 0 .4.4.4 1zm16.3 2.5c-.9 1.6-1 1.6-1.6.1-.5-1.2-.3-1.5.5-1s.9.1.4-1.2c-.5-1.4-.4-1.6.4-.7.8.7.9 1.7.3 2.8zm-6.8-.5c.3.5.1 1-.4 1-.6 0-1.1-.5-1.1-1 0-.6.2-1 .4-1 .3 0 .8.4 1.1 1zm11.7.5c1.1 1.5 1 2.5-.4 2.5-.6 0-.8-.3-.5-.7.4-.3-.1-1.2-1.1-2-1.3-1-1.4-1.3-.2-1.1.8.2 1.8.7 2.2 1.3zm-19.6 1c-.1.8-.5 1.7-.8 2.1-.5.4-.4-1.6.1-3.4.3-.9.9.1.7 1.3zm-19.8 3c-.3.3-.9-.2-1.2-1.2-.6-1.4-.5-1.5.5-.6.7.7 1 1.5.7 1.8zm3.7-.5c.3.5.1 1-.4 1-.6 0-1.1-.5-1.1-1 0-.6.2-1 .4-1 .3 0 .8.4 1.1 1zm14 2.1c-.4.5-1.2.9-1.8.8-.9 0-.8-.2.1-.6.6-.2.9-1 .6-1.5-.4-.7-.2-.8.5-.4.6.4.9 1.2.6 1.7zm-196.2.8c-.2.6.4 1.1 1.2 1.1.9 0 1.8.7 2.1 1.5.4.8 1.1 1.2 1.7.8.6-.4.7-.1.2.7-.6 1-.4 1.2.8.7 1.1-.4 2.2.2 3.2 1.6.8 1.2 1.9 2.2 2.2 2.2 1.2 0 1.3 2.8.2 4.1-.7.8-.7 1.4 0 1.8.7.5.6 1.5-.1 3.1-1.4 3-1.9 3.1-3.5.6-1.1-1.7-.9-2.1.7-2.6 1.8-.6 1.8-.8.5-2.1-.8-.8-1.6-1.3-1.8-1.2-.2.2-1.1-.3-2-1.1-1.4-1.1-2-1.1-3.4 0-1.1 1-1.4 1-.9.1.4-.7.2-1.2-.6-1.3-.7-.1-2-.2-2.8-.3-.8 0-1.5-.8-1.6-1.6-.2-3.5-.5-4-1.8-4-2 0-1.4-2.7.9-4.4 2.2-1.6 5.1-1.4 4.8.3zm176.4-.4c0 .8-.4 1.2-.9.9-.5-.3-.6-1-.3-1.5.9-1.3 1.2-1.1 1.2.6zm50.8-.6c.7 1.2-1.2 2.4-2.5 1.6-1.1-.7-.4-2.5 1-2.5.5 0 1.1.4 1.5.9zm-38.2 2.7c-.7 1.9-1 1.8-1.6-.5-.3-1.3-.1-1.8.9-1.4.7.2 1 1.1.7 1.9zm11.7-.6c0 .4-.7 1-1.5 1.3-1.6.7-2.9-.8-2-2.3.6-1 3.5-.2 3.5 1zm-27-.6c0 .2-.8 1-1.7 1.7-1.6 1.3-1.7 1.2-.4-.4 1.3-1.6 2.1-2.1 2.1-1.3zm9.4.5c-.3.4-1.1.6-1.7.6-.7.1-1 .7-.9 1.5.2.8 0 1.1-.4.7-1.7-1.6-1.1-3.3 1.2-3.3 1.3 0 2.1.2 1.8.5zm-22.4 1.5c0 .3-.4.8-1 1.1-.5.3-1 .1-1-.4 0-.6.5-1.1 1-1.1.6 0 1 .2 1 .4zm3.5 2.6c.1 1-.2 1.7-.6 1.4-.4-.2-.7-1.3-.6-2.4.2-2.3 1-1.7 1.2 1zm11.5-2.6c0 .2-.8 1-1.7 1.7-1.6 1.3-1.7 1.2-.4-.4 1.3-1.6 2.1-2.1 2.1-1.3zm8.5.6c-.3.5-1.2 1-1.8 1-.7 0-.6-.4.3-1 1.9-1.2 2.3-1.2 1.5 0zm29.5 2.6c0 .3-.4.3-.9 0s-1.4.1-2.1.9c-.7.8-.9 1.5-.4 1.5.5.1-.2.7-1.6 1.4-2.9 1.6-7.2 1.4-7.8-.2-.2-.7.1-1.3.7-1.3.6-.1 1.9-.2 2.9-.4 2.4-.3 7-2.4 5.4-2.4-.7-.1-1-.6-.7-1.1.6-1 4.5.4 4.5 1.6zm-58-1.1c0 .2-.6.8-1.3 1.4-1 .8-1.4.7-1.4-.2 0-.8.6-1.4 1.4-1.4.7 0 1.3.1 1.3.2zm15.4.7c-.2.3-1.3.6-2.4.5-2.4-.2-1.8-1.3.9-1.3 1.1 0 1.8.4 1.5.8zm8.4.9c.3 1.1.2 1.1-.7-.1-.9-1.3-1.2-1.2-2.5.5-.9 1.1-1.6 1.6-1.6 1.2 0-.4-1.3.6-3 2.3-3 3.1-4 3-1.6-.2.7-1 1.7-1.4 2.1-1 .5.4.5-.1.2-1-.4-1.2-.1-1.6 1.3-1.3 1 .2 2.1-.3 2.4-1.2.7-1.7 2.8-1.3 3.4.8zm-17.3 2.9c-.3.5 0 1 .7 1.2.8.3.6.6-.4 1-1.1.5-1.5.2-1.3-1 .1-.9-.3-2.4-.9-3.2-1-1.3-.9-1.3.6-.1 1 .7 1.6 1.7 1.3 2.1zm21.5-2c0 .5-.7.7-1.5.4-.8-.4-1.5-.8-1.5-1 0-.2.7-.4 1.5-.4s1.5.4 1.5 1zm-33.5 1.9c.3.5.2 1.2-.3 1.5-.5.3-.9-.1-.9-.9 0-1.7.3-1.9 1.2-.6zm48.6 1.4c-1 .9-1.1.8-.5-.6.3-1 .9-1.5 1.2-1.2.3.3 0 1.1-.7 1.8zm-58.4 1.2c0 .8-.4 1.2-.9.9-.5-.3-.6-1-.3-1.5.9-1.3 1.2-1.1 1.2.6zm4.3-.5c0 .5-.5 1-1.1 1-.5 0-.7-.5-.4-1 .3-.6.8-1 1.1-1 .2 0 .4.4.4 1zm46.4 1.5c-.4.8-1.1 1.5-1.6 1.5-.6 0-.5-.6.2-1.5.7-.8 1.4-1.5 1.6-1.5.2 0 .1.7-.2 1.5zm-40.4-.1c0 .3-.4.8-1 1.1-.5.3-1 .1-1-.4 0-.6.5-1.1 1-1.1.6 0 1 .2 1 .4zm9.5.6c.3.5.1 1-.4 1-.6 0-1.1-.5-1.1-1 0-.6.2-1 .4-1 .3 0 .8.4 1.1 1zm-17.9 1.5c-.1.8-.5 1.7-.8 2.1-.5.4-.4-1.6.1-3.4.3-.9.9.1.7 1.3zm9.9-.5c-.3.5-.2 1 .4 1 .5 0 1.2-.6 1.4-1.3.4-.9.6-.9.6 0 .1 1.5-1.6 2.6-2.9 1.8-1-.6-.5-2.5.6-2.5.3 0 .2.4-.1 1zm-1.5 3c0 .6-.9.2-2-.7-1.1-1-2-1.9-2-2.1 0-.1.9.2 2 .8 1.1.6 2 1.5 2 2zm34.7-2.1c1.5-1.3 1.5-1.2.2.8-.8 1.3-1.6 2.3-1.9 2.3-.3 0-1.1-1-1.9-2.3-1.3-2-1.3-2.1.2-.8 1.4 1.1 2 1.1 3.4 0zm-37.1 2.4c.2.1-.6.9-1.8 1.6-1.1.7-1.7.8-1.3.2.3-.6.1-1.1-.4-1.1-.6 0-1.1-.4-1.1-.9 0-.9 3.7-.7 4.6.2zm-8.6.1c0 .2-.7.7-1.6 1-.8.3-1.2.2-.9-.4.6-1 2.5-1.4 2.5-.6zm-23.5 2.4c-.3.3-1.1 0-1.8-.7-.9-1-.8-1.1.6-.5 1 .3 1.5.9 1.2 1.2zm7-.8c.3.6-.1.7-.9.4-1.8-.7-2.1-1.4-.7-1.4.6 0 1.3.4 1.6 1zm4 0c.3.6-.1.7-.9.4-1.8-.7-2.1-1.4-.7-1.4.6 0 1.3.4 1.6 1zm35.9 1.1c-1 1.1-2.8 2.6-3.9 3.2-1.8.9-1.9.9-.6-.6.7-1 1-1.7.5-1.7-1.1-.1 3.8-2.9 5-3 .5 0 .1.9-1 2.1zm-142.3 1.2c.3-.1.6.4.6 1.1 0 2.1-4 1.1-4.8-1.2-.8-2.1-.7-2.2 1.4-1 1.2.7 2.5 1.2 2.8 1.1zm112.4-.5c-.3.3-1.1 0-1.8-.7-.9-1-.8-1.1.6-.5 1 .3 1.5.9 1.2 1.2zm-14.4 1.9c1.3 1.6 1.2 1.7-.3.4-1-.7-1.8-1.5-1.8-1.7 0-.8.8-.3 2.1 1.3zm9.7-.6c-.2.6-.7 1-1.2.9-.9-.2-3.5 3-3.6 4.4 0 .5 1 .1 2.2-1 1.2-1 1.8-1.3 1.3-.5-.5.9-.3 1.2.6.9.8-.3 1.5-1 1.5-1.6.1-.7.2-1.8.3-2.5.1-.8.4-.8 1 .3.6.8.8 1.7.5 2.1-.2.4.5.7 1.6.6 2.5-.2 2.5-.6.3-2.4-1-.8-.3-.7 1.6.4 2.2 1.2 3.5 2.7 3.7 4.3.3 2.1.2 2.3-.7.7-.9-1.6-1.3-1.5-4.7 1.3-3 2.5-3.8 2.7-4.5 1.5-.7-1.3-1.1-1.2-2.7.7-1.8 2.3-3 2.2-3.4-.4-.1-.7-.5-1.9-1-2.6-.5-.9-.1-1.9 1.4-2.9 1.2-.8 1.9-2.1 1.6-2.8-.3-.9.2-1.2 1.5-1 1 .2 1.9 0 1.9-.6 0-.5.3-.9.6-.9s.4.5.2 1.1zm26.2.4c-.7.9-1.5 1.3-1.9 1-.3-.3.1-1 .9-1.5 2.1-1.4 2.4-1.2 1 .5zm-46.5.5c.3.5.1 1-.4 1-.6 0-1.1-.5-1.1-1 0-.6.2-1 .4-1 .3 0 .8.4 1.1 1zm13.5 2c-.8.5-1.9 1-2.5 1-.5 0-.3-.5.5-1s2-1 2.5-1c.6 0 .3.5-.5 1zm-6.9 2.9c-.8 1.4-.7 2.2.6 3.2 1.4 1.2 1.5 1.1 1-1.1-.4-1.4-.4-1.9-.1-1.3.8 1.8 2.7 1.6 2-.2-.3-.8-.3-1.5-.1-1.5.8 0 4.6 8.2 4.1 8.8-1.1 1-2.1-1.2-2.5-5.1-.1-.4-.7-.2-1.5.5-1.2 1.1-1.2 1.4.1 2.1 1.1.7 1.1 1.2.2 2.3-1.3 1.6-3 .9-2.3-1 .3-.7-1-2.6-2.8-4.1-1.8-1.6-2.5-2.6-1.6-2.2 1 .3 1.9 0 2.2-.9.3-.8.8-1.4 1.1-1.4.3 0 .1.9-.4 1.9zm-10.6 1.1c-.1 1.1-.4 2.2-.8 2.5-.4.3-.5.2-.2-.2.3-.3-.3-1.2-1.3-2-.9-.8-1.2-1.2-.5-.9.6.4 1.4.2 1.8-.4.9-1.5 1.2-1.2 1 1zm-16 0c.3.5.1 1-.4 1-.6 0-1.1-.5-1.1-1 0-.6.2-1 .4-1 .3 0 .8.4 1.1 1zm10.1.5c-.1.8-.5 1.7-.8 2.1-.5.4-.4-1.6.1-3.4.3-.9.9.1.7 1.3zm-62 2.3c-.3.3 0 1.2.6 2.1 1 1.3 1 1.4-.2.4-1.6-1.5-2.3-4.6-.8-3.7.5.3.7.9.4 1.2zm65 1.1c-.9 1.4-2.6 1.4-2.6 0 0-.5.5-.7 1.2-.3.8.5.9.1.4-1.2-.5-1.4-.4-1.6.5-.7.6.6.8 1.6.5 2.2zm-15.2 1.1c-.6.6-1 .3-1-1s.4-1.6 1-1c.7.7.7 1.3 0 2zm9.3-2.4c-.3.3-1.2.4-1.9.1-.8-.3-.5-.6.6-.6 1.1-.1 1.7.2 1.3.5zm-5.3 1.2c.3.5-.1.9-.9.9s-1.2-.4-.9-.9c.3-.4.7-.8.9-.8.2 0 .6.4.9.8zm17 .1c.7 1-4.5 6.6-5.9 6.5-.6 0-1.7-.3-2.5-.7-1.3-.5-3.8-.4-7.2.2-.4 0-.6.7-.4 1.3.1.7.1.9-.2.4-.2-.4-.8-.2-1.3.5-.6 1-.9 1.1-.9.1 0-.6-.4-1.2-1-1.2-.5 0-.9.5-.7 1.1.1.6-.4 1.4-1 1.6-.7.3-1.3-.2-1.3-1.1 0-.9-.4-1.6-.9-1.6-.6 0-.8.9-.6 2 .2 1.1 0 2.2-.5 2.5-.4.3-.7-.3-.6-1.2.2-1-.4-2.1-1.3-2.5-1.4-.6-1.4-.7.2-.7.9-.1 1.7-.6 1.7-1.2 0-.8.5-.7 1.5.1 1.3 1 1.9 1 3.4-.4 1-.9 2.5-1.4 3.5-1 1.1.4 1.6.1 1.6-1.1 0-1-.5-1.4-1.2-.9-.7.4-.9.3-.5-.1 1.2-1.4 3.6-1.4 3.1-.2-.2.7.7 1.3 2.3 1.4 2.6.1 2.7 0 .8-1.3-1-.8-1.4-1.4-.9-1.4.6 0 1.5.5 2.2 1.2.9.9 1.5.9 2.4 0 .9-.9 1.5-.9 2.7.1 1.2 1 1.4.9.9-.5-.9-2.4 1.3-4 2.6-1.9zm-24.1 2.6c-.3.9-.8 1.4-1 1.1-.3-.3-.2-.9.2-1.5.9-1.6 1.5-1.3.8.4zm-6 2.5c1.2 2.3 1.2 3.1.3 3.9-.7.6-1.6.8-1.9.4-.4-.3-.7-.2-.7.4 0 .5-.7 1-1.6 1-1.5 0-1.5-.1 0-1.2 1.4-1.1 1.4-1.4.2-2.4-1.1-.9-1.5-.6-2 1.4-.4 1.4-1 2.4-1.5 2.1-.4-.3-1.5.4-2.4 1.5-2 2.2-3.4 2.5-3.4.5 0-.8.6-1.2 1.2-1 .7.3 1.8-.2 2.5-1.1 1-1.2 1-1.8 0-3-.7-.9-1-1.8-.7-2.1.3-.3 1.1.5 1.8 1.7 1.1 2.2 1.3 2.2 1.9.5.3-1.1 1.4-2 2.4-2.2 1-.1 1.5 0 1.3.3-.8.7 1.6 3.2 2.6 2.6.4-.3.4-1-.1-1.6-1.1-1.4-2.3-4.7-1.7-4.7.2 0 1 1.3 1.8 3zm3-.5c-.7 2.1-1.2 1.9-1-.4 0-1.1.5-1.8.9-1.5.4.3.5 1.1.1 1.9zM237 484c0 .5-.4 1-1 1-.5 0-1-.5-1-1 0-.6.5-1 1-1 .6 0 1 .4 1 1zm24.6.2c-.9.5-2.3.5-3.2 0-1.2-.6-.7-.9 1.6-.9s2.8.3 1.6.9zm14.9-.2c.3.5.1 1-.4 1-.6 0-1.1-.5-1.1-1 0-.6.2-1 .4-1 .3 0 .8.4 1.1 1z"/>
    <path d="M62.4 356.8c.3.5.1 1.2-.6 1.4-.8.3-.9.6-.1 1.1.6.4 1.3 0 1.7-.8.3-.8 0-1.7-.6-2.1-.6-.4-.8-.3-.4.4zM67.7 359.3c.9 1.7 1.7 3.5 1.8 3.9 0 .3.4 1 .9 1.5s.6.3.2-.5c-.9-1.5 2.8-1.3 5.4.2.8.5.2-.5-1.4-2.2-2.3-2.4-3.2-2.9-4.3-2.1-1.2 1.1-1.8.2-1.5-2.3.1-.3-.5-.9-1.3-1.2-1.3-.4-1.2 0 .2 2.7zm5.4 2.4c1.2 1.6 1.2 1.7-.2.6-.9-.7-2-.9-2.4-.5-.5.4-.5.1-.1-.6.9-1.6 1.1-1.5 2.7.5zM81.5 372.7c.2 1 .4 2 .4 2.2.1.2.7-.2 1.4-.8.8-.6 1.6-1 1.8-.8.2.1.3 0 .1-.3-.2-.3-.7-.5-1-.5-.4 0-1.2-.4-1.9-.8s-1-.1-.8 1zM139.6 420.2c.3.5 1 .6 1.5.3 1.3-.9 1.1-1.2-.6-1.2-.8 0-1.2.4-.9.9zM462.3 427.5c0 .8.4 1.2.9.9.5-.3.6-1 .3-1.5-.9-1.3-1.2-1.1-1.2.6zM163 429.5c0 .2 1 1 2.3 1.6 2 1.1 2.1 1.1.8-.4-1.3-1.6-3.1-2.3-3.1-1.2zM164.3 434.7c-.7.3-1.3.8-1.3 1.3 0 1 2.4.7 2.8-.4.5-1.1-.1-1.4-1.5-.9zM171.2 434.5c.4.4.3 1.4-.2 2-.7.8-.3 1.8 1.3 3.1 2.2 1.9 2.2 1.9.5-.2-1.3-1.4-1.5-2.3-.7-3.1.8-.8.7-1.3-.3-1.8-.7-.5-1-.5-.6 0zM178.6 440.7c-.6 1.4-.5 1.5.5.6.7-.7 1-1.5.7-1.8-.3-.3-.9.2-1.2 1.2zM186.3 447.7c-.3.7-1 1-1.6.6-.6-.3.2 1 1.7 2.9 1.6 2.2 2.3 3.8 1.6 4.1-.6.3-.5.4.2.2.7-.1 1.2-.8 1-1.5-.1-.6.3-1 1-.8.7.3 1.4 1 1.4 1.6.3 2.3.4 2.4 1.8 1.3 1.1-.9 1.5-.8 2 .5.4.9.9 1.4 1.3 1 .3-.3 1.5.1 2.5 1.1 1 .9 1.8 1.4 1.9 1.2.5-2.5.4-4.7-.2-4.3-.4.2-1.3-.4-1.9-1.5-.6-1.1-1.7-1.8-2.4-1.5-.8.3-2-.3-2.7-1.3-.8-1.1-2.2-2.2-3.2-2.6-1-.4-1.6-1.1-1.3-1.5.3-.5-.2-.9-1-.9-.9 0-1.8.6-2.1 1.4zm3.6 4c-1.3 1.5-2.3 1.8-1.5.4.3-.5-.1-1.1-.9-1.5-.8-.3-1.2-1.2-.9-2.1.6-1.4.8-1.4 2.5.1 1.4 1.3 1.6 2 .8 3.1zm7.3 1.7c.7-.4 1-.3.5.1-.4.5.3 2 1.5 3.4 2 2.2 2 2.3.2.8-1.1-.9-2.4-1.4-2.9-1-.4.5-.5.3-.2-.3 1-1.7-1.8-2.5-3.3-1.1-1 .9-1.1.9-.6 0 .3-.6.2-1.4-.4-1.8-.6-.4-.8-1.1-.4-1.6.4-.6 1.3-.4 2.4.6 1.1 1 2.4 1.4 3.2.9z"/>
    <path d="M187 449.4c0 .2.7.7 1.6 1 .8.3 1.2.2.9-.4-.6-1-2.5-1.4-2.5-.6zM200.1 462.9c-.8.5-.9 1.1-.3 1.5.5.3 1.2-.1 1.6-.9.6-1.7.6-1.8-1.3-.6zM325.6 472.9c-.4.5-1.7.8-3.1.6-1.4-.1-2.8.2-3.1.7-.3.5-1.2.7-2 .4-.7-.3-1.8.3-2.3 1.2-.6 1-1.1 1.2-1.1.4 0-.6-.5-1.2-1.1-1.2-.8 0-.8.4-.1 1.2.6.7 1.1 1.6 1.1 2 .1.5.3.8.6.8s.5-.3.4-.6c-.2-1.4 2.6-2.2 3.9-1.1 1.1.9 1.7.7 2.8-.8.8-1 1.4-1.5 1.4-1 0 .4.8.1 1.8-.8 1-1 2.2-1.4 2.7-1 .4.5.5.2.1-.5-.9-1.4-1.3-1.5-2-.3zM321 476c0 .5-.4 1-1 1-.5 0-1-.5-1-1 0-.6.5-1 1-1 .6 0 1 .4 1 1zM291.4 483.5c-.4.8-1.1 1.2-1.7.8-.6-.3-.7-.1-.3.5.5.9 1.3.9 2.7.2 1.1-.6 1.7-1.5 1.4-2.1-.9-1.3-1.5-1.1-2.1.6zM279 486.1c0 .5.5.7 1 .4.6-.3 1-.8 1-1.1 0-.2-.4-.4-1-.4-.5 0-1 .5-1 1.1zM105.4 68.5c-.4.8-1 1.2-1.5.9-.5-.3-.9 0-.9.6 0 .7.7.9 1.6.6 1.4-.5 1.5-.4.4.9-.7.8-1.7 1.2-2.3.8-.6-.4-.2.9 1 2.8 1.2 1.8 2.5 3.3 2.8 3.1.3-.1.9-.2 1.3-.2 1.2 0 .8-5.2-.6-7.7-.9-1.7-.9-2.2.1-2.6.9-.4.9-.6-.1-.6-.7-.1-1.5.6-1.8 1.4zm2.1 5.3c-.2.9-.4 2.1-.4 2.6-.1.6-.7.1-1.5-1-1-1.3-1.1-2.3-.4-3.1 1.3-1.7 2.7-.8 2.3 1.5z"/>
    <path d="M105.5 72.9c-.3.5-.2 1.2.3 1.5.5.3.9-.1.9-.9 0-1.7-.3-1.9-1.2-.6zM111.5 100.9c-.3.5-.2 1.2.3 1.5.5.3.9-.1.9-.9 0-1.7-.3-1.9-1.2-.6zM112.2 120.5c.4.4.3 1.4-.3 2.2-.7.8-.8 1.3-.1 1.3 1.5 0 2.3-2.8.9-3.6-.7-.4-.9-.4-.5.1zM351.4 261.5c0 1.3.3 2.2.7 1.9.8-.4.6-3-.2-3.8-.3-.3-.5.5-.5 1.9zM352 265.4c0 .2.7.9 1.5 1.6 1.3 1.1 1.4 1 .9-.4-.5-1.4-2.4-2.3-2.4-1.2zM356.5 266.1c-.4.6-.5 1.2-.2 1.5.2.3.7-.2 1-1.1.7-1.7.1-2-.8-.4zM359.4 266.8c.3.5 0 1.3-.6 1.5-.8.3-.6.6.5.6 1.9.1 2.3-1.4.5-2.5-.6-.4-.8-.3-.4.4zM361.5 270c-.3.5-.1 1 .4 1 .6 0 1.1-.5 1.1-1 0-.6-.2-1-.4-1-.3 0-.8.4-1.1 1zM364 272.6c0 1.4-.2 1.5-1.7.3-1.7-1.3-1.7-1.2-.4.4 1.3 1.7 1.6 1.7 2.6.3.7-.9 1.6-1.2 2-.8.5.4.5.1.1-.6-1-1.7-2.6-1.5-2.6.4zM369.9 272.7c-1.3 1.6-1.2 1.7.4.4 1.6-1.3 2.1-2.1 1.3-2.1-.2 0-1 .8-1.7 1.7zM366.6 275.5c.3.7 1.2 1.6 1.9 1.9.9.3 1.2 0 .9-.9-.3-.7-1.2-1.6-1.9-1.9-.9-.3-1.2 0-.9.9zM391.3 289.7c.4.6.2 1.3-.5 1.5-.8.3-.6.6.4 1 1.7.7 1.9-1.5.3-2.9-.4-.4-.5-.3-.2.4zM30.5 340c-.3.6.1.7.9.4 1.8-.7 2.1-1.4.7-1.4-.6 0-1.3.4-1.6 1zM41 339.9c0 .6.4 1.3 1 1.6.6.3.7-.1.4-.9-.7-1.8-1.4-2.1-1.4-.7zM44.7 344.1c.7.7 1.5 1 1.8.7.3-.3-.2-.9-1.2-1.2-1.4-.6-1.5-.5-.6.5zM35.6 346.7c-.6 1.4-.5 1.5.5.6.7-.7 1-1.5.7-1.8-.3-.3-.9.2-1.2 1.2zM41.5 346c.3.5.8 1 1.1 1 .2 0 .4-.5.4-1 0-.6-.5-1-1.1-1-.5 0-.7.4-.4 1zM48.2 346.2c-1.6 1.6-1.5 2.5.2 2.5.8 0 1.2-.6.8-1.5-.4-1.1-.1-1.3.8-.7.9.5 1.1.4.6-.3-.9-1.5-.9-1.5-2.4 0zM51.4 350.5c.3 2.3 1.2 2.6 1.3.5.1-1.1-.2-2-.7-2-.4 0-.7.7-.6 1.5zM47.1 353.3c-.8 1-.7 1.4.4 1.4.8 0 1.1-.5.8-1-.4-.6.1-.8 1.1-.4s1.5.3 1.1-.3c-.8-1.4-2-1.2-3.4.3zM53.7 353.7c-1 1-.8 3.3.3 3.3.5 0 .6-.8.3-1.8-.6-1.5-.5-1.6 1.3-.2 1.8 1.4 1.8 1.4.5-.3-1.5-1.9-1.5-1.9-2.4-1zM49.9 356.7c-1.3 1.6-1.2 1.7.4.4.9-.7 1.7-1.5 1.7-1.7 0-.8-.8-.3-2.1 1.3zM41.6 358.2c.3.5 1 .6 1.5.3 1.3-.9 1.1-1.2-.6-1.2-.8 0-1.2.4-.9.9zM55 358c-.8.5-1 1-.5 1 .6 0 1.7-.5 2.5-1s1.1-1 .5-1c-.5 0-1.7.5-2.5 1zM51.5 359c-.4.6-1.1.7-1.7.4-.7-.4-.8-.2-.4.5.6.9 1.1.9 2.2 0 1.4-1.1 1.8-1.9 1-1.9-.3 0-.8.5-1.1 1zM57.4 360.3c.5 1.5.2 1.7-1.7 1.2-2-.5-2-.5-.4.6 2.3 1.4 4 0 2.6-2.1-.9-1.2-1-1.2-.5.3zM43 364.1c0 .5.5.7 1 .4.6-.3 1-.8 1-1.1 0-.2-.4-.4-1-.4-.5 0-1 .5-1 1.1zM52.5 364c-.3.6.1.7.9.4 1.8-.7 2.1-1.4.7-1.4-.6 0-1.3.4-1.6 1zM56.5 368c-.4.6.1.7 1.1.3 1.4-.5 1.6-.3 1 1.3-.5 1.4-.4 1.6.5.7 1.2-1.2.5-3.3-1.1-3.3-.5 0-1.2.4-1.5 1zM49 370.1c0 .5.5.7 1 .4.6-.3 1-.8 1-1.1 0-.2-.4-.4-1-.4-.5 0-1 .5-1 1.1zM475 369.9c0 .5.8 1.5 1.8 2.2 1.5 1.2 1.6 1.2.5-.2-.7-.9-1-1.9-.6-2.2.3-.4.1-.7-.5-.7-.7 0-1.2.4-1.2.9zM54 371.4c0 .2.8 1 1.8 1.7 1.5 1.3 1.6 1.2.3-.4s-2.1-2.1-2.1-1.3zM60.5 372c.3.5.8 1 1.1 1 .2 0 .4-.5.4-1 0-.6-.5-1-1.1-1-.5 0-.7.4-.4 1zM470.6 371.8c-.3.5.1.9.9.9s1.2-.4.9-.9c-.3-.4-.7-.8-.9-.8-.2 0-.6.4-.9.8zM65.9 373.2c-.1.2-.3 1.3-.4 2.6-.2 1.9 0 2 1.3 1 1.4-1.1 1.5-1 .8.7-.5 1.5-.4 1.7.5.8 1.3-1.3.2-3.6-1.3-2.7-.7.5-.9.1-.5-.9.5-1.3.1-2.5-.4-1.5zM473 374c-.9.6-1 1-.3 1 .6 0 1.5-.5 1.8-1 .8-1.2.4-1.2-1.5 0zM478.5 374c-.3.6.1.7.9.4 1.8-.7 2.1-1.4.7-1.4-.6 0-1.3.4-1.6 1zM474.6 375.5c-1.1.8-1.5 1.5-.9 1.5s1.6-.7 2.3-1.5c1.6-1.9 1.1-1.9-1.4 0zM54.6 375.8c-.3.5.1.9.9.9s1.2-.4.9-.9c-.3-.4-.7-.8-.9-.8-.2 0-.6.4-.9.8zM88 375.9c0 .6.4 1.3 1 1.6.6.3.7-.1.4-.9-.7-1.8-1.4-2.1-1.4-.7zM482.6 376.2c.3.5 1 .6 1.5.3 1.3-.9 1.1-1.2-.6-1.2-.8 0-1.2.4-.9.9zM478.8 377.7c.7.3 1.6.2 1.9-.1.4-.3-.2-.6-1.3-.5-1.1 0-1.4.3-.6.6zM483.5 379c-.4.6-1.1.8-1.6.5-.5-.4-.9-.1-.9.4 0 1.6 1.6 1.3 3-.4.7-.8 1-1.5.7-1.5-.3 0-.9.5-1.2 1zM55 379.4c0 .2.7.7 1.6 1 .8.3 1.2.2.9-.4-.6-1-2.5-1.4-2.5-.6zM94.8 381.8c1.3 1.8 2.8 3 3.3 2.7 1.4-.9 1.2-1.2-2.3-3.7l-3.3-2.3 2.3 3.3zM71.1 382.7c.7 1.2 1.5 2 1.8 1.7.3-.2-.3-1.2-1.3-2.2-1.7-1.6-1.8-1.6-.5.5zM73.6 382.3c.3 1 .9 1.5 1.2 1.2.3-.3 0-1.1-.7-1.8-1-.9-1.1-.8-.5.6zM77.2 382.6c.4.3-.3 1.5-1.5 2.6-2.2 1.9-2.2 1.9.8.2 1.7-1 3.1-1.9 3.3-2 .2-.1-.5-.5-1.5-.8-.9-.4-1.4-.4-1.1 0zM481.5 385c-.9 1.4 2.4 2.5 3.7 1.2.8-.8.4-.9-1.2-.5s-2.1.3-1.6-.5c.4-.7.5-1.2.2-1.2s-.8.5-1.1 1zM79 388.1c0 .5.5.7 1 .4.6-.3 1-.8 1-1.1 0-.2-.4-.4-1-.4-.5 0-1 .5-1 1.1zM83.3 388c-3.4 1.4-2.8 2.1.7.9 1.7-.6 3-1.3 3-1.5 0-.6-1.2-.4-3.7.6zM486.6 387.8c-.2.4.4.8 1.4.8 1 0 1.6-.4 1.4-.8-.3-.4-.9-.8-1.4-.8-.5 0-1.1.4-1.4.8zM69.3 389.5c0 .8.4 1.2.9.9.5-.3.6-1 .3-1.5-.9-1.3-1.2-1.1-1.2.6zM104.6 388.9c-.3.5.2 1.5 1.2 2.2 1.5 1.2 1.6 1.2.5-.2-.7-.9-1-1.9-.6-2.2.3-.4.4-.7 0-.7-.3 0-.8.4-1.1.9zM482 389.5c-1 1.2-1.6 1.3-2.7.4-.7-.7-1.6-.9-1.9-.6-.8.8 2.9 2.7 5.2 2.7.3 0-.2.7-1.1 1.6-1.1 1.2-1.3 2-.6 2.7.8.8 1.5.7 2.4-.2 1-1 .8-1.1-.8-.6-1.8.6-1.8.5.3-1.3 2.3-2.1 2.9-3.4 1.3-3-.5.2-.8-.2-.7-.7 0-.6.5-.9.9-.7.5.1.6-.2.2-.8-.8-1.3-1-1.3-2.5.5zM74.6 390.2c.3.4.9.8 1.5.8.5 0 .9-.4.9-.8 0-.5-.7-.9-1.5-.9s-1.2.4-.9.9zM85.9 389.2c-.6 1.8-.3 4.6.3 4.2.5-.4.7-1.2.4-1.9-.3-.8 0-1.6.7-1.9.9-.3.9-.5 0-.5-.7-.1-1.3 0-1.4.1zM79.6 391.3c.3 1 .9 1.5 1.2 1.2.3-.3 0-1.1-.7-1.8-1-.9-1.1-.8-.5.6zM109.9 392.3c-.7 1.2-.8 1.9-.4 1.4 1-.9 4.6 2.3 3.9 3.4-.5.8 0 1 3.3 1.3.7.1 1.9 1 2.6 2 1.3 1.8 1.4 1.7 1.2-1.3-.1-1.7-.5-3.4-1-3.9-.4-.4-.5.4-.1 1.8.6 2.4.6 2.4-.9-.3-1.2-2-2.1-2.6-3.5-2.2-1.5.5-1.8.2-1.5-1.4.5-2.8-2.2-3.5-3.6-.8zm6.2 5c-1 .9-1.1.8-.5-.6.3-1 .9-1.5 1.2-1.2.3.3 0 1.1-.7 1.8zM490.1 391.4c1.4 1.5 2 1.6 3.5.6 1.8-1.1 1.8-1.1 0-.6-1 .4-2.6.1-3.5-.6-1.4-1.1-1.4-1 0 .6zM91.8 393.7c1.2.2 2 .8 1.7 1.3-.3.5.4 1.4 1.5 2 1.3.7 2 .7 2 0 0-.5-.7-1-1.5-1s-1.4-.6-1.2-1.2c.1-.7-.9-1.3-2.3-1.4-2.2-.2-2.2-.2-.2.3zM493.3 397.1c-.2 2.3.3 2.5 1 .4.4-.8.3-1.6-.1-1.9-.4-.3-.9.4-.9 1.5zM87 398.4c.7.7 1.3.7 2 0 .6-.6.3-1-1-1s-1.6.4-1 1zM92 400c.8.5 2 1 2.5 1 .6 0 .3-.5-.5-1s-1.9-1-2.5-1c-.5 0-.3.5.5 1zM486 400c-.8.5-1 1-.5 1 .6 0 1.7-.5 2.5-1s1.1-1 .5-1c-.5 0-1.7.5-2.5 1zM89.5 402c.3.5.8 1 1.1 1 .2 0 .4-.5.4-1 0-.6-.5-1-1.1-1-.5 0-.7.4-.4 1zM105.4 402.2c-.5.8-.2.9 1.1.5 1.4-.6 1.6-.3 1.2 1.4-.4 1.6-.3 1.9.5 1.1 1.2-1.2.4-4.2-1.1-4.2-.5 0-1.3.5-1.7 1.2zM472 402c-.9.6-1 1-.3 1 .6 0 1.5-.5 1.8-1 .8-1.2.4-1.2-1.5 0zM95 404.1c0 .5.5.7 1 .4.6-.3 1-.8 1-1.1 0-.2-.4-.4-1-.4-.5 0-1 .5-1 1.1zM103.7 404.1c.7.7 1.5 1 1.8.7.3-.3-.2-.9-1.2-1.2-1.4-.6-1.5-.5-.6.5zM127 403.8c0 .5 1.1 1.5 2.5 2.2 1.7.9 2.4 1.9 2 2.9-.5 1.3-.4 1.3.6.4 1-1 .8-1.8-1.1-3.8-2.4-2.5-4-3.2-4-1.7zM487 404.1c-1.3.9-1.3 1 .1.6.9-.3 2.3 0 3 .6 1.1 1 1.1.9 0-.6-.7-.9-1.4-1.7-1.5-1.7 0 0-.8.5-1.6 1.1zM110 405.5c-1 1.3-1.1 1.8-.1 2.8 1 .9 1.1.8.5-.6-.4-1.2-.2-1.7.6-1.5.7.2 1.5-.3 1.7-1 .7-1.7-1.2-1.5-2.7.3zM470.6 404.8c-.3.5-.3 2.1 0 3.6.3 1.6.1 2.5-.5 2.2-1.2-.8-2.4 1.1-1.6 2.4.4.6 1.2.7 1.8.3.7-.4 1.6-.8 2.2-.8 1.3 0 1.1-7.8-.2-8.2-.6-.2-1.4 0-1.7.5zm2.4.6c0 .3-.4.8-1 1.1-.5.3-1 .1-1-.4 0-.6.5-1.1 1-1.1.6 0 1 .2 1 .4zM100 407.4c0 .2.8 1 1.8 1.7 1.5 1.3 1.6 1.2.3-.4s-2.1-2.1-2.1-1.3zM105.9 408.7c-1 1.2-1 1.5-.1.9.7-.4 2-.2 3 .6 1.6 1.2 1.6 1.1.2-.7-.8-1.1-1.5-2.1-1.6-2.3-.1-.1-.7.5-1.5 1.5zM486.1 408.6c0 1.1.3 1.4.6.6.3-.7.2-1.6-.1-1.9-.3-.4-.6.2-.5 1.3zM488 408.1c0 .5.5.7 1 .4.6-.3 1-.8 1-1.1 0-.2-.4-.4-1-.4-.5 0-1 .5-1 1.1zM97.5 408.9c-.3.5-.2 1.2.3 1.5.5.3.9-.1.9-.9 0-1.7-.3-1.9-1.2-.6zM112 409.4c0 .2.7.7 1.6 1 .8.3 1.2.2.9-.4-.6-1-2.5-1.4-2.5-.6zM116.1 410.5c0 .5.3 1.6.8 2.3.7 1.1.9 1 1.4-.3.4-.9.3-1.4-.2-1-.5.3-1.2-.1-1.4-.7-.3-.7-.6-.9-.6-.3zM135 412c-1.2 2.3.2 2.7 1.9.6.8-.9.8-1.6.2-2-.6-.4-1.5.3-2.1 1.4zM106.7 412.1c.7.7 1.5 1 1.8.7.3-.3-.2-.9-1.2-1.2-1.4-.6-1.5-.5-.6.5zM110.5 412c-.3.6.1.7.9.4 1.8-.7 2.1-1.4.7-1.4-.6 0-1.3.4-1.6 1zM464 412.9c0 .5.7 1.4 1.5 2.1.8.7 1.2 1.7.8 2.3-.3.6-.1.7.5.3.9-.5.7-1.4-.4-3.2-1.7-2.5-2.4-3-2.4-1.5zM119 413.9c0 .6.8.7 1.8.4 1.4-.6 1.5-.4.5.8-1 1.3-1 1.6.1 1.6 1.9 0 1.3-3.1-.7-3.5-1-.2-1.7.1-1.7.7zM139.6 413.8c-.2.4.4 1.3 1.4 2 1.1.7 2.1.8 2.5.2.3-.5-.3-1.4-1.4-2-1.1-.5-2.2-.6-2.5-.2zM124.8 415.7c.6.3 1.2.9 1.2 1.4 0 .6-.4.8-.9.4-.5-.3-1.2-.1-1.5.4-.4.5.2.8 1.1.7.9-.2 1.9-.8 2.1-1.4.2-.7.8-1 1.3-.6.5.3.9.1.9-.4s-1.2-.9-2.7-.9c-1.6 0-2.2.2-1.5.4zM118.8 418.2c.5.5 1.6.8 2.3.6.8-.3.3-.7-1-1.1-1.7-.4-2.1-.3-1.3.5zM147 417.9c0 .5.6 1.1 1.4 1.4.8.3 1.2 1.6 1.1 3.1-.2 1.4.1 2.4.6 2 .5-.3.7-.9.4-1.3-.2-.5.7-.7 2-.5 2.9.3 3.2-.8.8-2.7-1.1-1-1.4-1-.9-.2.4.7.2 1.3-.3 1.3-.6 0-1.1-.3-1.1-.8 0-.4-.9-1.3-2-2s-2-.8-2-.3zM460.1 419.4c-.5 1.3-1.7 2.6-2.6 3-.9.3-1.3 1.1-.9 1.7.5.8 1 .6 1.6-.5.5-.9 1.3-1.4 1.7-1.1.5.2 1.4-.2 2.1-1 .7-.8 1.6-1.2 2.1-.9 1.3.7.7-1.9-.6-2.8-1.7-1.3-2.5-.9-3.4 1.6zm1.9.6c-.6 1.1-1.3 2-1.6 2-.2 0 0-.9.6-2s1.3-2 1.6-2c.2 0 0 .9-.6 2zM489.5 418c.3.5.8 1 1.1 1 .2 0 .4-.5.4-1 0-.6-.5-1-1.1-1-.5 0-.7.4-.4 1zM129 418.9c0 1 1.9 2.5 2.5 2 .1-.2-.3-1-1.1-1.7s-1.4-.8-1.4-.3zM479 418.9c0 .6.5 1.2 1 1.2 2 .3 2.5.4 4 1.4 1.3.8 1.3.7.1-.8-.8-1-1.6-1.5-1.9-1.2-.3.3-1.1 0-1.9-.6-.9-.9-1.3-.8-1.3 0zM113.9 419.2c-.5 1.8-.6 3.8-.1 3.4.7-.8 1.2-3.6.6-3.6-.2 0-.4.1-.5.2zM119.6 422.2c.3.5 1 .6 1.5.3 1.3-.9 1.1-1.2-.6-1.2-.8 0-1.2.4-.9.9zM477.3 422.6c-.3.8-.2 1.9.3 2.4s.9-.1.9-1.6c0-2.8-.3-3-1.2-.8zM132.1 423.6c0 1.1.3 1.4.6.6.3-.7.2-1.6-.1-1.9-.3-.4-.6.2-.5 1.3zM481 422.4c0 .2.8 1 1.8 1.7 1.5 1.3 1.6 1.2.3-.4s-2.1-2.1-2.1-1.3zM121.3 425.5c0 .8.4 1.2.9.9.5-.3.6-1 .3-1.5-.9-1.3-1.2-1.1-1.2.6zM445.1 426.1c-2.1 2-2.1 2.2-.4 3.5 1 .8 1.3 1.3.8 1.2-.6-.2-2.3.7-3.9 1.9-1.6 1.3-2.4 2.3-1.9 2.3s1.8-.9 2.8-2c1-1.1 2-1.8 2.3-1.5.8.8 4.3-1.6 3.7-2.6-.4-.5-1-.7-1.5-.4-.5.3-1.2 0-1.6-.6-.4-.8-.3-.9.4-.5s1.2.2 1.2-.4c0-.6.4-.8 1-.5.6.3.7-.1.4-.9-.8-2-.6-2-3.3.5zM130.8 426.2c.5.5 1.6.8 2.3.6.8-.3.3-.7-1-1.1-1.7-.4-2.1-.3-1.3.5zM155 426.4c0 .2.7.7 1.6 1 .8.3 1.2.2.9-.4-.6-1-2.5-1.4-2.5-.6zM469.2 427.5c-.8 1-.9 1.5-.2 1.5.6 0 .8.6.4 1.2-.4.7-.3 1 .1.5.8-.7 1.9-4.8 1.2-4.7-.1.1-.8.7-1.5 1.5zM127 428.1c0 .5.5.7 1 .4.6-.3 1-.8 1-1.1 0-.2-.4-.4-1-.4-.5 0-1 .5-1 1.1zM137.2 427.9c-1.1.7-1.1.9 0 1.4.9.3 1.5-.1 1.5-.9s-.1-1.4-.1-1.4c-.1 0-.7.4-1.4.9zM143 430c0 .6.7 1 1.5 1s1.5-.2 1.5-.4-.7-.6-1.5-1c-.8-.3-1.5-.1-1.5.4zM478.9 430.2c1.4 1.9.6 4.2-1.1 3.2-.7-.5-.8-.2-.3.5.6 1 1.1.9 2.3-.3 1.5-1.5 1.5-1.7-.3-3.4-1.7-1.5-1.8-1.5-.6 0zM467 430.9c0 .7-.5.9-1.2.5s-1-.4-.6 0c.3.4 1 .8 1.5.8.4.1 1.4.8 2.1 1.7 1.1 1.3 1.1 1.2.1-.9-1.5-3.2-1.9-3.6-1.9-2.1zM473.1 430.7c-.1 1.7 1.6 2.5 2.5 1.2.4-.7.3-.9-.4-.5-.5.3-1.3 0-1.5-.6-.4-.9-.6-1-.6-.1zM139 431.4c0 .2.7.7 1.6 1 .8.3 1.2.2.9-.4-.6-1-2.5-1.4-2.5-.6zM471 432.4c0 .8.4 1.7.9 2 .5.4.7-.3.4-1.4-.6-2.3-1.3-2.6-1.3-.6zM461.4 433.8c.3.6-.2 1.3-1.1 1.5-1.6.4-1.6.5-.1.6 2.1.1 3.2-1.5 1.7-2.5-.7-.4-.9-.3-.5.4zM141.3 435.3c0 .8.6 1.4 1.4 1.4.9 0 1-.4.2-1.4-.6-.7-1.2-1.3-1.4-1.3-.1 0-.2.6-.2 1.3zM434 436.1c-1.1 1.9-1.3 2-3 .4-1.7-1.5-1.9-1.5-3.2.4-.8 1.2-1.7 1.9-2 1.6-.3-.3-1 0-1.6.7-.8 1-.4 1.4 1.9 1.4 1.6.1 2.7-.2 2.4-.6-.3-.4.2-1.3 1-2 .9-.8 1.5-.9 1.5-.2 0 .6.9 1 2 .9 1-.1 1.7-.3 1.5-.5-.2-.3 0-1.3.6-2.3.5-1.1.7-1.9.5-1.9-.3 0-1 .9-1.6 2.1zM145 435.4c0 .2.7.7 1.6 1 .8.3 1.2.2.9-.4-.6-1-2.5-1.4-2.5-.6zM153.6 436.5c.4.8.8 1.5 1 1.5.2 0 .4-.7.4-1.5s-.4-1.5-1-1.5c-.5 0-.7.7-.4 1.5zM149.5 436.9c-.4.7 0 .8 1.1.4 1.2-.4 1.5-.3 1 .5-.4.7-.2 1.2.4 1.2 1.4 0 .8-2.2-.7-2.7-.6-.2-1.4.1-1.8.6zM144 438c-.9.6-1 1-.3 1 .6 0 1.5-.5 1.8-1 .8-1.2.4-1.2-1.5 0zM155.7 438.5c-.4.8-.3 1.6.1 1.9.4.3.9-.4.9-1.5.2-2.3-.3-2.5-1-.4zM158 440.1c0 .5.5.7 1 .4.6-.3 1-.8 1-1.1 0-.2-.4-.4-1-.4-.5 0-1 .5-1 1.1zM419 439.4c0 .2.7.7 1.6 1 .8.3 1.2.2.9-.4-.6-1-2.5-1.4-2.5-.6zM451 440c0 .5.5 1 1 1 .6 0 1-.5 1-1 0-.6-.4-1-1-1-.5 0-1 .4-1 1zM457 439.4c0 .2.7.7 1.6 1 .8.3 1.2.2.9-.4-.6-1-2.5-1.4-2.5-.6zM141.4 442.4c.1.8.5 1.8.8 2.2.4.3.5-.1.4-1-.1-.8-.5-1.8-.8-2.2-.4-.3-.5.1-.4 1zM154.8 442.2c.5.5 1.6.8 2.3.6.8-.3.3-.7-1-1.1-1.7-.4-2.1-.3-1.3.5zM159.5 442c-.3.6.1.7.9.4 1.8-.7 2.1-1.4.7-1.4-.6 0-1.3.4-1.6 1zM454.6 442.3c.3 1 .9 1.5 1.2 1.2.3-.3 0-1.1-.7-1.8-1-.9-1.1-.8-.5.6zM163.1 443.6c0 1.1.3 1.4.6.6.3-.7.2-1.6-.1-1.9-.3-.4-.6.2-.5 1.3zM411 444c-.9 1.6-.8 1.8.5 1.4.8-.4 1.5-1.2 1.5-2 0-2-.7-1.7-2 .6zM441.6 443.7c-.6 1.4-.5 1.5.5.6.7-.7 1-1.5.7-1.8-.3-.3-.9.2-1.2 1.2zM447.2 442.9c-1.1.6-.9.9.6 1.3s1.9.2 1.5-.8c-.6-1.6-.4-1.6-2.1-.5zM457.6 444.2c.3.5 1 .6 1.5.3 1.3-.9 1.1-1.2-.6-1.2-.8 0-1.2.4-.9.9zM443.5 445c-.3.5-.1 1 .4 1 .6 0 1.1-.5 1.1-1 0-.6-.2-1-.4-1-.3 0-.8.4-1.1 1zM161.3 447.1c-.2 2.3.3 2.5 1 .4.4-.8.3-1.6-.1-1.9-.4-.3-.9.4-.9 1.5zM167 445.8c0 .5.7 1.2 1.5 1.6.8.3 1.4.9 1.3 1.3-.3.8.5 1.3 2.3 1.3 1.1 0 0-1.3-3.4-3.9-.9-.7-1.7-.9-1.7-.3zM407 446.1c0 .5.5.7 1 .4.6-.3 1-.8 1-1.1 0-.2-.4-.4-1-.4-.5 0-1 .5-1 1.1zM398.5 448.2c-1.4 1-2.9 1.6-3.5 1.3-.5-.3-1-.1-1 .5s-.6.8-1.2.4c-1-.5-1-.4-.1.6 1.4 1.5 4.6 2.3 3.8 1-.8-1.3 5.1-5.1 6.8-4.4.8.3 1.7.2 2-.3 1.1-1.7-4.4-1-6.8.9zM431 448c0 .5.5 1 1 1 .6 0 1-.5 1-1 0-.6-.4-1-1-1-.5 0-1 .4-1 1zM165.5 449c-.3.6.1.7.9.4 1.8-.7 2.1-1.4.7-1.4-.6 0-1.3.4-1.6 1zM424.2 449.3c1 .8 1.4 1.8 1 2.2-.4.5-.1.5.6.1 1.7-1 1.5-1.4-1-2.6-2.1-1-2.1-1-.6.3zM435.6 449.8c-.2.4-.1 1.4.4 2.2.7 1.1.9.9.7-.8-.1-2.4-.3-2.6-1.1-1.4zM448.6 450.2c.3.5 1 .6 1.5.3 1.3-.9 1.1-1.2-.6-1.2-.8 0-1.2.4-.9.9zM143 451.4c0 .2.7.7 1.6 1 .8.3 1.2.2.9-.4-.6-1-2.5-1.4-2.5-.6zM172.5 452c.3.5.8 1 1.1 1 .2 0 .4-.5.4-1 0-.6-.5-1-1.1-1-.5 0-.7.4-.4 1zM410 452c0 .9.6 2.2 1.3 2.9 1 1.1.8 1.2-1 .7-2.3-.7-4 .8-2.2 2 .8.5.9.3.4-.6-.5-.9-.2-1 1.3-.6 2.7.9 3.2-.3 1.6-3.4-.8-1.5-1.4-1.9-1.4-1zM427.9 452c-.3 2-.4 2.5-1.1 3.6-.4.6-.2 1.1.5 1.1s1.3-1.3 1.4-2.9c.1-2.6-.5-4-.8-1.8zM378.3 453.3c-.4.8-2.5 2.5-4.5 3.7-3.9 2.2-5.4 3.9-1.9 2 1.4-.7 2.2-.7 2.6.1.5.7 1.5.3 2.9-1 1.2-1.2 2.5-1.8 2.9-1.5.3.4.4-.4.2-1.6-.6-3-1.1-3.5-2.2-1.7zm1.7 1c0 .2-1.2 1.4-2.7 2.8l-2.8 2.4 2.4-2.8c2.3-2.5 3.1-3.2 3.1-2.4zM157.3 455.1c-.2 2.3.3 2.5 1 .4.4-.8.3-1.6-.1-1.9-.4-.3-.9.4-.9 1.5zM419 453.9c0 .6.4 1.2.8 1.5.5.3.9-.1.9-.9s-.4-1.5-.9-1.5c-.4 0-.8.4-.8.9zM175.5 458c.6 3 1.6 4 1.2 1.2-.2-1.2-.6-2.4-1-2.8-.3-.4-.4.4-.2 1.6zM165.5 458c-.3.5-.1 1 .4 1 .6 0 1.1-.5 1.1-1 0-.6-.2-1-.4-1-.3 0-.8.4-1.1 1zM405.4 457.8c.3.5.1 1.2-.6 1.4-.8.3-.9.6-.1 1.1.6.4 1.3 0 1.7-.8.3-.8 0-1.7-.6-2.1-.6-.4-.8-.3-.4.4zM362.5 460.1l-2 2.2 2.2-1.2c1.6-.8 2.4-.8 2.9.1.5.7.3.8-.7.3-1.1-.7-1.1-.5.1 1.1 1.4 1.7 1.3 1.8-.1.7-1.3-1.1-2-.9-3.9.7-2.3 2-4.5 1.8-3.7-.4.3-.7-.1-1.3-.9-1.3-1.8 0-1.7.7.1 3.1.8 1.1 1.2 2.9.9 3.9-.4 1.3-.2 1.7.5 1.3.6-.4 1.1-1.6 1.1-2.7 0-1 .4-1.9 1-1.9.5 0 .7.6.4 1.4-.3.9.4 1.9 1.8 2.6 2.2 1.1 2.2 1 .4-.4-1.1-.9-1.7-1.9-1.3-2.3 1-.9 4.8 2.8 4 4-.3.6-.1.7.6.3.9-.6.9-1.1-.1-2.3-1.1-1.4-1-1.5 1-.9 1.2.4 2.2.3 2.2-.2s-.7-.9-1.5-1c-.8-.1-2.2-.3-3-.4-.8-.1-1.6-.7-1.9-1.4-.3-.9.2-1.1 1.7-.8 1.2.3 2.7.6 3.4.8.7.1 1.6.5 1.9.9.4.4 1.1.7 1.7.7.5 0-.3-1.2-1.7-2.8-1.4-1.5-3.1-3.5-3.9-4.5-1.2-1.8-1.4-1.7-3.2.4zm5.3 4.4c-.3.3-.9-.2-1.2-1.2-.6-1.4-.5-1.5.5-.6.7.7 1 1.5.7 1.8zM181 460.1c0 .5.4.8.9.4.6-.3 1.4.3 2 1.2.6 1 1.1 1.3 1.1.7 0-1.2-2-3.4-3.2-3.4-.4 0-.8.5-.8 1.1zM185.5 460c.3.5.8 1 1.1 1 .2 0 .4-.5.4-1 0-.6-.5-1-1.1-1-.5 0-.7.4-.4 1zM205.3 460.9c.1 1.9 1.5 3 4.5 3.7.6.1 1.2-.2 1.2-.7 0-.5-.5-.9-1.1-.9-.5 0-.7-.5-.3-1.2.5-.7.3-.8-.6-.3-.8.5-1.8.1-2.6-1-1.2-1.6-1.3-1.6-1.1.4zM399 460.2c0 .3.9.6 2 .5 1.1-.1 2-.5 2-.9 0-.3-.9-.6-2-.5-1.1.1-2 .5-2 .9zM407.7 460.5c-.4.8-.3 1.6.1 1.9.4.3.9-.4.9-1.5.2-2.3-.3-2.5-1-.4zM169.3 462.5c0 .8.4 1.2.9.9.5-.3.6-1 .3-1.5-.9-1.3-1.2-1.1-1.2.6zM391.3 462.8c.2 1.2.9 2.8 1.7 3.5 1 1 1.1.9.4-.3-.5-.8-.9-2.1-1-2.8-.2-.8-.5-1.7-.8-2-.4-.3-.5.4-.3 1.6zM411 462c0 .5.5 1 1.1 1 .5 0 .7-.5.4-1-.3-.6-.8-1-1.1-1-.2 0-.4.4-.4 1zM414.7 462.1c.7.7 1.5 1 1.8.7.3-.3-.2-.9-1.2-1.2-1.4-.6-1.5-.5-.6.5zM350.9 463.7c-1.3 1.6-1.2 1.7.4.4 1.6-1.3 2.1-2.1 1.3-2.1-.2 0-1 .8-1.7 1.7zM387.4 464.2c-.4.6-.3.8.4.4.5-.3 1.3 0 1.5.6.3.8.6.6.6-.5.1-1.9-1.4-2.3-2.5-.5zM395.9 464.7c-1.2 1.6-1.2 1.7.2.6.9-.7 1.9-1 2.2-.6.4.3.7.1.7-.5 0-1.7-1.6-1.5-3.1.5zM342 467.3c-1.2 2.1-1.2 2.1.6.7 1-.8 2-1.5 2.2-1.6.2-.1-.1-.4-.5-.7-.5-.3-1.5.4-2.3 1.6zM385 466c0 .5.5 1 1.1 1 .5 0 .7-.5.4-1-.3-.6-.8-1-1.1-1-.2 0-.4.4-.4 1zM183.4 467.1c-.3.6-.2 1.5.3 2s.9.1.9-1.1c0-2.3-.2-2.4-1.2-.9zM214 468c.7 1.3.7 2.1 0 2.5-1.6 1-1.2 2.8.5 2.2.8-.4 1.7-.2 2 .3.6 1-.5 1.3-3.5 1.1-1 0-1.1.1-.2.5 2.1 1 1.3 2.6-1 1.9-2.1-.6-2.2-.5-.4.6 1.6 1 2.2.9 3.3-.6.7-1 1.6-1.6 1.9-1.2.4.4.1 1.3-.5 2.1-.9 1.1-1 2-.1 3.6.9 1.7 3 2 3 .4 0-.3-.4-.3-.9 0s-1.2-.1-1.5-1c-.9-2.4-.7-2.8.9-1.4 1 .9 1.5.9 1.5.1 0-.6-.5-1.1-1.1-1.1-.5 0-.7-.5-.4-1 .9-1.5 3.7.9 3.1 2.7-1 2.5.9 1.3 2.6-1.8 1.2-2 2.2-2.8 3-2.3.9.6.9.3-.1-.9-.7-.9-1.7-1.5-2.1-1.2-.4.3-1.5-.7-2.4-2-.9-1.4-2.1-2.3-2.6-2-1.1.7-4-.5-4-1.7 0-.5.6-.6 1.3-.2.6.4.8.3.4-.1-.4-.5-1.4-1-2.2-1.1-1.1-.2-1.2.2-.5 1.6zm7.6 4.9c.9 1.2 2.1 1.8 2.7 1.4.7-.3.4.3-.7 1.5-1.8 2-1.9 2-4.1.4-1.3-.9-2.3-1.9-2.3-2.2.1-2.3-.4-3.1-1.8-2.6-.8.3-1.2.2-.9-.3 1-1.7 5.5-.5 7.1 1.8z"/>
    <path d="M219.3 472.9c.4 2.5 2.2 4.6 3 3.4.3-.4-.3-1.9-1.4-3.2-1.9-2.3-1.9-2.3-1.6-.2zM376.6 467.7c-.6 1.4-.5 1.5.5.6.7-.7 1-1.5.7-1.8-.3-.3-.9.2-1.2 1.2zM187.6 468.7c-.6 1.4-.5 1.5.5.6.7-.7 1-1.5.7-1.8-.3-.3-.9.2-1.2 1.2zM194.7 468.9c-.3 1.3 0 1.8.7 1.5.7-.3 1.3-1.1 1.3-1.9 0-2.2-1.4-1.8-2 .4zM370.8 469.7c.7.3 1.6.2 1.9-.1.4-.3-.2-.6-1.3-.5-1.1 0-1.4.3-.6.6zM379 470.4c.7.7 1.3.7 2 0 .6-.6.3-1-1-1s-1.6.4-1 1zM373.5 470.9c-.3.5-.2 1.2.3 1.5.5.3.9-.1.9-.9 0-1.7-.3-1.9-1.2-.6zM199.4 473.5c.1 1.3.6 2.8 1 3.2.5.4.6.3.3-.4-.4-.6-.1-1.4.5-1.6 1-.4 1-.6 0-.6-.7-.1-1.1-.5-.7-1 .3-.5.1-1.2-.3-1.5-.5-.3-.8.6-.8 1.9zM205 471.7c.5.2 1 .9 1 1.4 0 .6-.4.8-.9.4-.5-.3-1.2-.1-1.5.4-.4.5.2.8 1.1.7 2.1-.3 2.4-2.8.5-3.2-.7-.1-.8 0-.2.3zM359 472.2c0 .6.3.8.7.5.3-.4 1.3-.1 2.2.6 1.4 1.1 1.4 1 .2-.6-1.5-2-3.1-2.2-3.1-.5zM350.6 473.6c-.5 1.4-.4 1.5.8.5.8-.7 2.1-.9 2.7-.5.8.4.9.3.5-.4-1-1.7-3.3-1.5-4 .4zM189.6 473.8c-.3.5.1.9.9.9s1.2-.4.9-.9c-.3-.4-.7-.8-.9-.8-.2 0-.6.4-.9.8zM347 474c0 .5.5 1 1.1 1 .5 0 .7-.5.4-1-.3-.6-.8-1-1.1-1-.2 0-.4.4-.4 1zM369 474.1c0 .5.5.7 1 .4.6-.3 1-.8 1-1.1 0-.2-.4-.4-1-.4-.5 0-1 .5-1 1.1zM357.6 475.3c.3 1 .9 1.5 1.2 1.2.3-.3 0-1.1-.7-1.8-1-.9-1.1-.8-.5.6zM338.6 475.8c-.3.5.1.9.9.9s1.2-.4.9-.9c-.3-.4-.7-.8-.9-.8-.2 0-.6.4-.9.8zM342.5 476c-.3.6.1.7.9.4 1.8-.7 2.1-1.4.7-1.4-.6 0-1.3.4-1.6 1zM352.6 475.8c-.3.5.1.9.9.9s1.2-.4.9-.9c-.3-.4-.7-.8-.9-.8-.2 0-.6.4-.9.8zM204.2 477.6c1 1 2 1.6 2.2 1.3.3-.3-.5-1.1-1.7-1.8-2.1-1.3-2.1-1.2-.5.5zM349 478c0 .5.5 1 1.1 1 .5 0 .7-.5.4-1-.3-.6-.8-1-1.1-1-.2 0-.4.4-.4 1zM299.8 479.2c.9.9.9 1.5-.1 2.7-.6.9-.2.8 1.1-.3 1.7-1.5 1.9-2.2 1-2.8-2-1.2-3.4-1-2 .4zM209.6 483.8c-.3.5.1.9.9.9s1.2-.4.9-.9c-.3-.4-.7-.8-.9-.8-.2 0-.6.4-.9.8zM218.8 485.7c.7.3 1.6.2 1.9-.1.4-.3-.2-.6-1.3-.5-1.1 0-1.4.3-.6.6zM215.5 487.1c-.4.6-.5 1.2-.2 1.5.2.3.7-.2 1-1.1.7-1.7.1-2-.8-.4zM230 487c-.8.5-1.1 1.2-.7 1.7.5.4 1.1.3 1.5-.3.4-.6 1.4-1.4 2.2-1.7 1.3-.5 1.3-.5 0-.6-.8 0-2.2.3-3 .9zM235.4 487.9c.4.5.1 1.2-.4 1.4-.6.3-.5.4.2.3 1.5-.3 2.3-2.6.8-2.6-.6 0-.9.4-.6.9zM308.6 488.2c.3.5 1 .6 1.5.3 1.3-.9 1.1-1.2-.6-1.2-.8 0-1.2.4-.9.9zM313.6 487.8c-.3.5.1.9.9.9s1.2-.4.9-.9c-.3-.4-.7-.8-.9-.8-.2 0-.6.4-.9.8zM287 490c-1.2.7-1 .9.7.7 1.2 0 1.9-.5 1.7-.9-.6-1-.6-1-2.4.2zM297 490c0 .5.5 1 1.1 1 .5 0 .7-.5.4-1-.3-.6-.8-1-1.1-1-.2 0-.4.4-.4 1zM218.6 492.2c.3.5 1 .6 1.5.3 1.3-.9 1.1-1.2-.6-1.2-.8 0-1.2.4-.9.9zM233 492.1c0 .5.5.7 1 .4.6-.3 1-.8 1-1.1 0-.2-.4-.4-1-.4-.5 0-1 .5-1 1.1zM282 491.4c0 .2.7.6 1.5 1 .8.3 1.5.1 1.5-.4 0-.6-.7-1-1.5-1s-1.5.2-1.5.4zM243.5 493c-.3.5-.1 1 .4 1 .6 0 1.1-.5 1.1-1 0-.6-.2-1-.4-1-.3 0-.8.4-1.1 1zM291.3 493.5c0 .8.4 1.2.9.9.5-.3.6-1 .3-1.5-.9-1.3-1.2-1.1-1.2.6zM264.6 494.3c.3 1 .9 1.5 1.2 1.2.3-.3 0-1.1-.7-1.8-1-.9-1.1-.8-.5.6zM281.5 494c-.3.5-.1 1 .4 1 .6 0 1.1-.5 1.1-1 0-.6-.2-1-.4-1-.3 0-.8.4-1.1 1zM259.3 495.9c0 1.1.5 1.8.9 1.5.4-.3.5-1.1.1-1.9-.7-2.1-1.2-1.9-1 .4z"/>
</svg>